<?xml version="1.0" encoding="UTF-8" standalone="no"?>
<svg width="50px" height="62px" viewBox="0 0 50 62" version="1.1" xmlns="http://www.w3.org/2000/svg" xmlns:xlink="http://www.w3.org/1999/xlink" xmlns:sketch="http://www.bohemiancoding.com/sketch/ns">
    <!-- Generator: Sketch 3.5.2 (25235) - http://www.bohemiancoding.com/sketch -->
    <title>Combination Lock</title>
    <desc>Created with Sketch.</desc>
    <defs></defs>
    <g id="Page-1" stroke="none" stroke-width="1" fill="none" fill-rule="evenodd" sketch:type="MSPage">
        <g id="Icons" sketch:type="MSArtboardGroup" transform="translate(-490.000000, -2285.000000)">
            <g id="Combination-Lock" sketch:type="MSLayerGroup" transform="translate(491.000000, 2286.000000)">
                <path d="M39.0508475,60 L8.54237288,60 C3.82454237,60 0,56.1754576 0,51.4576271 L0,24.6101695 L47.5932203,24.6101695 L47.5932203,51.4576271 C47.5932203,56.1754576 43.768678,60 39.0508475,60 L39.0508475,60 Z" id="Fill-2789" fill="#FFFFFF" sketch:type="MSShapeGroup"></path>
                <path d="M39.0508475,60 L8.54237288,60 C3.82454237,60 0,56.1754576 0,51.4576271 L0,24.6101695 L47.5932203,24.6101695 L47.5932203,51.4576271 C47.5932203,56.1754576 43.768678,60 39.0508475,60 L39.0508475,60 Z" id="Stroke-2790" stroke="#66CCCC" stroke-width="2" stroke-linecap="round" stroke-linejoin="round" sketch:type="MSShapeGroup"></path>
                <path d="M7.3220339,24.5467119 L7.3220339,16.6145085 C7.3220339,7.55349153 14.7355932,0.139932203 23.7966102,0.139932203 C32.8576271,0.139932203 40.2711864,7.55349153 40.2711864,16.6145085 L40.2711864,24.5467119 L7.3220339,24.5467119 L7.3220339,24.5467119 Z" id="Path" stroke="#66CCCC" stroke-width="2" stroke-linecap="round" stroke-linejoin="round" sketch:type="MSShapeGroup"></path>
                <path d="M8.54237288,60 C3.82454237,60 0,56.1754576 0,51.4576271 L47.5932203,51.4576271 C47.5932203,56.1754576 43.768678,60 39.0508475,60 L8.54237288,60 Z" id="Fill-2792" fill-opacity="0.403391078" fill="#66CCCC" sketch:type="MSShapeGroup"></path>
                <path d="M39.0508475,60 L8.54237288,60 C3.82454237,60 0,56.1754576 0,51.4576271 L47.5932203,51.4576271 C47.5932203,56.1754576 43.768678,60 39.0508475,60 L39.0508475,60 Z" id="Stroke-2793" stroke="#66CCCC" stroke-width="2" stroke-linecap="round" stroke-linejoin="round" sketch:type="MSShapeGroup"></path>
                <path d="M9.76271186,30.7118644 L15.8644068,30.7118644 L15.8644068,45.3559322 L9.76271186,45.3559322 L9.76271186,30.7118644 Z" id="Fill-2794" fill-opacity="0.403391078" fill="#66CCCC" sketch:type="MSShapeGroup"></path>
                <path d="M9.76271186,30.7118644 L15.8644068,30.7118644 L15.8644068,45.3559322 L9.76271186,45.3559322 L9.76271186,30.7118644 Z" id="Stroke-2795" stroke="#66CCCC" stroke-width="2" stroke-linecap="round" stroke-linejoin="round" sketch:type="MSShapeGroup"></path>
                <path d="M9.76271186,35.5932203 L15.8644068,35.5932203 M9.76271186,40.4745763 L15.8644068,40.4745763" id="Stroke-2796" stroke="#66CCCC" stroke-width="2" stroke-linecap="round" stroke-linejoin="round" sketch:type="MSShapeGroup"></path>
                <path d="M20.7457627,30.7118644 L26.8474576,30.7118644 L26.8474576,45.3559322 L20.7457627,45.3559322 L20.7457627,30.7118644 Z" id="Fill-2797" fill-opacity="0.403391078" fill="#66CCCC" sketch:type="MSShapeGroup"></path>
                <path d="M20.7457627,30.7118644 L26.8474576,30.7118644 L26.8474576,45.3559322 L20.7457627,45.3559322 L20.7457627,30.7118644 Z" id="Stroke-2798" stroke="#66CCCC" stroke-width="2" stroke-linecap="round" stroke-linejoin="round" sketch:type="MSShapeGroup"></path>
                <path d="M20.7457627,35.5932203 L26.8474576,35.5932203 M20.7457627,40.4745763 L26.8474576,40.4745763" id="Stroke-2799" stroke="#66CCCC" stroke-width="2" stroke-linecap="round" stroke-linejoin="round" sketch:type="MSShapeGroup"></path>
                <path d="M31.7288136,30.7118644 L37.8305085,30.7118644 L37.8305085,45.3559322 L31.7288136,45.3559322 L31.7288136,30.7118644 Z" id="Fill-2800" fill-opacity="0.403391078" fill="#66CCCC" sketch:type="MSShapeGroup"></path>
                <path d="M31.7288136,30.7118644 L37.8305085,30.7118644 L37.8305085,45.3559322 L31.7288136,45.3559322 L31.7288136,30.7118644 Z" id="Stroke-2801" stroke="#66CCCC" stroke-width="2" stroke-linecap="round" stroke-linejoin="round" sketch:type="MSShapeGroup"></path>
                <path d="M31.7288136,35.5932203 L37.8305085,35.5932203 M31.7288136,40.4745763 L37.8305085,40.4745763" id="Stroke-2802" stroke="#66CCCC" stroke-width="2" stroke-linecap="round" stroke-linejoin="round" sketch:type="MSShapeGroup"></path>
            </g>
        </g>
    </g>
</svg>