<?xml version="1.0" encoding="UTF-8" standalone="no"?>
<svg width="50px" height="60px" viewBox="0 0 50 60" version="1.1" xmlns="http://www.w3.org/2000/svg" xmlns:xlink="http://www.w3.org/1999/xlink">
    <!-- Generator: Sketch 3.6.1 (26313) - http://www.bohemiancoding.com/sketch -->
    <title>Lock Smartphone</title>
    <desc>Created with Sketch.</desc>
    <defs></defs>
    <g id="Page-1" stroke="none" stroke-width="1" fill="none" fill-rule="evenodd">
        <g id="Icons" transform="translate(-249.000000, -1560.000000)">
            <g id="Lock-Smartphone" transform="translate(250.000000, 1561.000000)">
                <path d="M44,39 L32,39 L32,37 C32,33.686 34.686,31 38,31 C41.314,31 44,33.686 44,37 L44,39 L44,39 Z" id="Stroke-1292" stroke="#0096E6" stroke-width="2" stroke-linecap="round" stroke-linejoin="round"></path>
                <path d="M28,39 L48,39 L48,55 L28,55 L28,39 Z" id="Fill-1298" fill="#D0E8F9"></path>
                <path d="M28,39 L48,39 L48,55 L28,55 L28,39 Z" id="Stroke-1299" stroke="#0096E6" stroke-width="2" stroke-linecap="round" stroke-linejoin="round"></path>
                <path d="M41,47 C41,48.657 39.657,50 38,50 C36.343,50 35,48.657 35,47 C35,45.343 36.343,44 38,44 C39.657,44 41,45.343 41,47 L41,47 Z" id="Fill-1300" fill="#FFFFFF"></path>
                <path d="M41,47 C41,48.657 39.657,50 38,50 C36.343,50 35,48.657 35,47 C35,45.343 36.343,44 38,44 C39.657,44 41,45.343 41,47 L41,47 Z" id="Stroke-1301" stroke="#0096E6" stroke-width="2" stroke-linecap="round" stroke-linejoin="round"></path>
                <path d="M38,50 L38,52" id="Stroke-1302" stroke="#0096E6" stroke-width="2" stroke-linecap="round" stroke-linejoin="round"></path>
                <path d="M19,52 C19,53.657 17.657,55 16,55 C14.343,55 13,53.657 13,52 C13,50.343 14.343,49 16,49 C17.657,49 19,50.343 19,52 L19,52 Z" id="Fill-1324" fill="#D0E8F9"></path>
                <path d="M19,52 C19,53.657 17.657,55 16,55 C14.343,55 13,53.657 13,52 C13,50.343 14.343,49 16,49 C17.657,49 19,50.343 19,52 L19,52 Z" id="Stroke-1325" stroke="#0096E6" stroke-width="2" stroke-linecap="round" stroke-linejoin="round"></path>
                <path d="M0,46 L22,46 M32,29 L32,3.405 C32,1.525 30.475,0 28.595,0 L3.406,0 C1.525,0 0,1.525 0,3.405 L0,54.594 C0,56.475 1.525,58 3.406,58 L28.595,58 M0,6 L32,6 M12,3 L16,3 M19,3 L20,3" id="Stroke-1326" stroke="#0096E6" stroke-width="2" stroke-linecap="round" stroke-linejoin="round"></path>
            </g>
        </g>
    </g>
</svg>