<?xml version="1.0" encoding="UTF-8" standalone="no"?>
<svg width="222px" height="61px" viewBox="0 0 222 61" version="1.1" xmlns="http://www.w3.org/2000/svg" xmlns:xlink="http://www.w3.org/1999/xlink" xmlns:sketch="http://www.bohemiancoding.com/sketch/ns">
    <!-- Generator: Sketch 3.5.1 (25234) - http://www.bohemiancoding.com/sketch -->
    <title>Icons</title>
    <desc>Created with Sketch.</desc>
    <defs></defs>
    <g id="Page-1" stroke="none" stroke-width="1" fill="none" fill-rule="evenodd" sketch:type="MSPage">
        <g id="Desktop-HD" sketch:type="MSArtboardGroup" transform="translate(-615.000000, -284.000000)">
            <g id="Icons" sketch:type="MSLayerGroup" transform="translate(616.000000, 285.000000)">
                <g id="Ticket" transform="translate(164.000000, 2.000000)" sketch:type="MSShapeGroup">
                    <path d="M0.338,44.178 C3.443,41.073 3.581,35.962 0.522,32.85 L32.964,0.408 C36.06,3.559 41.013,3.459 44.156,0.315 L55.398,11.557 C52.293,14.662 52.434,20.023 55.492,23.136 L23.05,55.577 C19.954,52.427 14.701,52.255 11.557,55.398 L0.338,44.178 Z" id="Fill-1582" fill="#FFFFFF"></path>
                    <path d="M0.338,44.178 C3.443,41.073 3.581,35.962 0.522,32.85 L32.964,0.408 C36.06,3.559 41.013,3.459 44.156,0.315 L55.398,11.557 C52.293,14.662 52.434,20.023 55.492,23.136 L23.05,55.577 C19.954,52.427 14.701,52.255 11.557,55.398 L0.338,44.178 Z" id="Stroke-1583" stroke="#00CFF1" stroke-width="2" stroke-linejoin="round"></path>
                    <path d="M27,41.728 L21.866,46.862 C20.368,46.38 18.788,46.127 17.19,46.13 C15.688,46.132 14.221,46.35 12.828,46.769 L9.015,42.956 C9.937,40.079 9.984,36.989 9.151,34.122 L14,29.272 M19.272,24 L34.171,9.102 C35.526,9.511 36.949,9.722 38.406,9.72 C39.966,9.718 41.494,9.475 42.948,9.007 L46.8,12.859 C45.932,15.788 45.945,18.958 46.839,21.889 L32,36.728" id="Stroke-1847" stroke="#00CFF1" stroke-width="2" stroke-linecap="round" stroke-linejoin="round"></path>
                    <path d="M18,32 L19.545,35.292 L23,35.82 L20.5,38.382 L21.09,42 L18,40.292 L14.91,42 L15.5,38.382 L13,35.82 L16.455,35.292 L18,32" id="Fill-1848" fill="#00CFF1"></path>
                    <path d="M28,22 L29.545,25.292 L33,25.82 L30.5,28.382 L31.09,32 L28,30.292 L24.91,32 L25.5,28.382 L23,25.82 L26.455,25.292 L28,22" id="Fill-1849" fill="#00CFF1"></path>
                    <path d="M37,13 L38.545,16.292 L42,16.82 L39.5,19.382 L40.09,23 L37,21.292 L33.91,23 L34.5,19.382 L32,16.82 L35.455,16.292 L37,13" id="Fill-1850" fill="#00CFF1"></path>
                    <path d="M32.506,43.506 C32.25,43.506 31.994,43.408 31.799,43.213 L31.092,42.506 C30.701,42.115 30.701,41.482 31.092,41.092 C31.482,40.701 32.115,40.701 32.506,41.092 L33.213,41.799 C33.604,42.189 33.604,42.822 33.213,43.213 C33.018,43.408 32.762,43.506 32.506,43.506 L32.506,43.506 Z M29.678,40.678 C29.422,40.678 29.166,40.58 28.971,40.385 L28.264,39.678 C27.873,39.287 27.873,38.654 28.264,38.264 C28.654,37.873 29.287,37.873 29.678,38.264 L30.385,38.971 C30.775,39.361 30.775,39.994 30.385,40.385 C30.189,40.58 29.934,40.678 29.678,40.678 L29.678,40.678 Z M26.85,37.85 C26.594,37.85 26.338,37.752 26.143,37.557 L25.436,36.85 C25.045,36.459 25.045,35.826 25.436,35.436 C25.826,35.045 26.459,35.045 26.85,35.436 L27.557,36.143 C27.947,36.533 27.947,37.166 27.557,37.557 C27.361,37.752 27.105,37.85 26.85,37.85 L26.85,37.85 Z M24.021,35.021 C23.765,35.021 23.509,34.923 23.313,34.728 L22.606,34.021 C22.216,33.63 22.216,32.997 22.606,32.606 C22.997,32.216 23.63,32.216 24.021,32.606 L24.728,33.313 C25.118,33.704 25.118,34.337 24.728,34.728 C24.532,34.923 24.276,35.021 24.021,35.021 L24.021,35.021 Z M21.192,32.192 C20.937,32.192 20.681,32.095 20.485,31.899 L19.778,31.192 C19.388,30.802 19.388,30.169 19.778,29.778 C20.169,29.388 20.802,29.388 21.192,29.778 L21.899,30.485 C22.29,30.876 22.29,31.509 21.899,31.899 C21.704,32.095 21.448,32.192 21.192,32.192 L21.192,32.192 Z M18.364,29.364 C18.108,29.364 17.853,29.267 17.657,29.071 L16.95,28.364 C16.56,27.974 16.56,27.341 16.95,26.95 C17.341,26.56 17.974,26.56 18.364,26.95 L19.071,27.657 C19.462,28.048 19.462,28.681 19.071,29.071 C18.876,29.267 18.62,29.364 18.364,29.364 L18.364,29.364 Z M15.535,26.535 C15.279,26.535 15.023,26.437 14.828,26.242 L14.121,25.535 C13.73,25.145 13.73,24.512 14.121,24.121 C14.512,23.73 15.145,23.73 15.535,24.121 L16.242,24.828 C16.633,25.219 16.633,25.852 16.242,26.242 C16.047,26.437 15.791,26.535 15.535,26.535 L15.535,26.535 Z M12.707,23.707 C12.451,23.707 12.195,23.609 12,23.414 L11.293,22.707 C10.902,22.316 10.902,21.684 11.293,21.293 C11.684,20.902 12.316,20.902 12.707,21.293 L13.414,22 C13.805,22.391 13.805,23.023 13.414,23.414 C13.219,23.609 12.963,23.707 12.707,23.707 L12.707,23.707 Z" id="Fill-1851" fill="#00CFF1"></path>
                </g>
                <g id="Candy" transform="translate(73.000000, 0.000000)" sketch:type="MSShapeGroup">
                    <path d="M49.893,51.387 C47.329,53.485 42.556,51.895 39.233,47.835 C35.91,43.774 35.296,38.782 37.86,36.683 C40.424,34.584 45.197,36.174 48.52,40.235 C51.843,44.295 52.458,49.288 49.893,51.387 L49.893,51.387 Z" id="Fill-932" fill="#FFFFFF"></path>
                    <path d="M49.893,51.387 C47.329,53.485 42.556,51.895 39.233,47.835 C35.91,43.774 35.296,38.782 37.86,36.683 C40.424,34.584 45.197,36.174 48.52,40.235 C51.843,44.295 52.458,49.288 49.893,51.387 L49.893,51.387 Z" id="Stroke-933" stroke="#00CFF1" stroke-width="2" stroke-linejoin="round"></path>
                    <path d="M36.47,38.974 C36.706,38.048 37.16,37.255 37.86,36.683 C38.56,36.11 39.427,35.822 40.381,35.773 L36.944,29.249 C36.236,32.125 33.714,34.19 30.753,34.315 L36.47,38.974 L36.47,38.974 Z" id="Fill-934" fill="#FFFFFF"></path>
                    <path d="M36.47,38.974 C36.706,38.048 37.16,37.255 37.86,36.683 C38.56,36.11 39.427,35.822 40.381,35.773 L36.944,29.249 C36.236,32.125 33.714,34.19 30.753,34.315 L36.47,38.974 L36.47,38.974 Z" id="Stroke-935" stroke="#00CFF1" stroke-width="2" stroke-linejoin="round"></path>
                    <path d="M57,53.754 L51.284,49.095 C51.048,50.021 50.593,50.814 49.893,51.387 C49.194,51.959 48.327,52.248 47.373,52.296 L50.809,58.821 C51.517,55.944 54.04,53.88 57,53.754 L57,53.754 Z" id="Fill-936" fill="#FFFFFF"></path>
                    <path d="M57,53.754 L51.284,49.095 C51.048,50.021 50.593,50.814 49.893,51.387 C49.194,51.959 48.327,52.248 47.373,52.296 L50.809,58.821 C51.517,55.944 54.04,53.88 57,53.754 L57,53.754 Z" id="Stroke-937" stroke="#00CFF1" stroke-width="2" stroke-linejoin="round"></path>
                    <path d="M46.093,46.743 C45.239,47.443 43.553,46.797 42.329,45.301 C41.105,43.806 40.805,42.026 41.66,41.326 C42.515,40.626 44.2,41.272 45.424,42.768 C46.649,44.264 46.948,46.044 46.093,46.743 L46.093,46.743 Z" id="Fill-938" fill="#D0E8F9"></path>
                    <path d="M46.093,46.743 C45.239,47.443 43.553,46.797 42.329,45.301 C41.105,43.806 40.805,42.026 41.66,41.326 C42.515,40.626 44.2,41.272 45.424,42.768 C46.649,44.264 46.948,46.044 46.093,46.743 L46.093,46.743 Z" id="Stroke-939" stroke="#00CFF1" stroke-width="2" stroke-linejoin="round"></path>
                    <path d="M13,58.821 L13,26.821" id="Stroke-940" stroke="#00CFF1" stroke-width="2" stroke-linecap="round" stroke-linejoin="round"></path>
                    <path d="M26,13.821 C26,21.001 20.18,26.821 13,26.821 C5.82,26.821 0,21.001 0,13.821 C0,6.642 5.82,0.821 13,0.821 C20.18,0.821 26,6.642 26,13.821 L26,13.821 Z" id="Fill-941" fill="#FFFFFF"></path>
                    <path d="M26,13.821 C26,21.001 20.18,26.821 13,26.821 C5.82,26.821 0,21.001 0,13.821 C0,6.642 5.82,0.821 13,0.821 C20.18,0.821 26,6.642 26,13.821 L26,13.821 Z" id="Stroke-942" stroke="#00CFF1" stroke-width="2" stroke-linecap="round" stroke-linejoin="round"></path>
                    <path d="M13,26.821 C10.397,26.423 8.894,25.075 6.889,23.07 C2.888,19.07 2.888,12.583 6.889,8.582 C10.09,5.381 15.279,5.381 18.48,8.582 C21.041,11.142 21.041,15.294 18.48,17.854 C16.432,19.903 13.11,19.903 11.062,17.854 C9.423,16.216 9.423,13.559 11.062,11.92 C12.373,10.609 14.499,10.609 15.81,11.92 C16.858,12.969 16.858,14.669 15.81,15.718 C14.971,16.557 13.61,16.557 12.771,15.718 C12.1,15.047 12.1,13.958 12.771,13.287" id="Stroke-943" stroke="#00CFF1" stroke-width="2" stroke-linecap="round" stroke-linejoin="round"></path>
                    <path d="M34.435,20.961 C32.336,18.397 33.926,13.624 37.986,10.301 C42.047,6.979 47.039,6.364 49.138,8.928 C51.237,11.492 49.647,16.265 45.586,19.588 C41.526,22.911 36.533,23.526 34.435,20.961 L34.435,20.961 Z" id="Fill-984" fill="#FFFFFF"></path>
                    <path d="M34.435,20.961 C32.336,18.397 33.926,13.624 37.986,10.301 C42.047,6.979 47.039,6.364 49.138,8.928 C51.237,11.492 49.647,16.265 45.586,19.588 C41.526,22.911 36.533,23.526 34.435,20.961 L34.435,20.961 Z" id="Stroke-985" stroke="#00CFF1" stroke-width="2" stroke-linejoin="round"></path>
                    <path d="M46.847,7.538 C47.773,7.773 48.566,8.228 49.138,8.928 C49.711,9.627 50,10.495 50.048,11.448 L56.573,8.012 C53.696,7.304 51.631,4.781 51.506,1.821 L46.847,7.538 L46.847,7.538 Z" id="Fill-986" fill="#FFFFFF"></path>
                    <path d="M46.847,7.538 C47.773,7.773 48.566,8.228 49.138,8.928 C49.711,9.627 50,10.495 50.048,11.448 L56.573,8.012 C53.696,7.304 51.631,4.781 51.506,1.821 L46.847,7.538 L46.847,7.538 Z" id="Stroke-987" stroke="#00CFF1" stroke-width="2" stroke-linejoin="round"></path>
                    <path d="M32.067,28.068 L36.726,22.352 C35.8,22.115 35.007,21.661 34.435,20.961 C33.862,20.262 33.573,19.395 33.525,18.44 L27,21.877 C29.877,22.585 31.941,25.108 32.067,28.068 L32.067,28.068 Z" id="Fill-988" fill="#FFFFFF"></path>
                    <path d="M36.726,22.352 C35.8,22.115 35.007,21.661 34.435,20.961 C33.862,20.262 33.573,19.395 33.525,18.44 L27,21.877 C29.877,22.585 31.941,25.108 32.067,28.068 L36.726,22.352 Z" id="Stroke-989" stroke="#00CFF1" stroke-width="2" stroke-linejoin="round"></path>
                    <path d="M39.078,17.161 C38.378,16.306 39.024,14.621 40.52,13.397 C42.016,12.173 43.795,11.873 44.495,12.728 C45.195,13.583 44.549,15.268 43.053,16.492 C41.557,17.717 39.777,18.016 39.078,17.161 L39.078,17.161 Z" id="Fill-990" fill="#D0E8F9"></path>
                    <path d="M39.078,17.161 C38.378,16.306 39.024,14.621 40.52,13.397 C42.016,12.173 43.795,11.873 44.495,12.728 C45.195,13.583 44.549,15.268 43.053,16.492 C41.557,17.717 39.777,18.016 39.078,17.161 L39.078,17.161 Z" id="Stroke-991" stroke="#00CFF1" stroke-width="2" stroke-linejoin="round"></path>
                </g>
                <g id="Frappe" sketch:type="MSShapeGroup">
                    <path d="M21.834,58 L10.166,58 C8.333,58 6.764,56.687 6.441,54.884 L0.164,18 C0.078,17.525 0.444,17.088 0.927,17.088 L31.073,17.088 C31.556,17.088 31.922,17.525 31.836,18 L25.559,54.884 C25.236,56.687 23.667,58 21.834,58 L21.834,58 Z" id="Fill-749" fill="#FFFFFF"></path>
                    <path d="M21.834,58 L10.166,58 C8.333,58 6.764,56.687 6.441,54.884 L0.164,18 C0.078,17.525 0.444,17.088 0.927,17.088 L31.073,17.088 C31.556,17.088 31.922,17.525 31.836,18 L25.559,54.884 C25.236,56.687 23.667,58 21.834,58 L21.834,58 Z" id="Stroke-750" stroke="#00CFF1" stroke-width="2" stroke-linejoin="round"></path>
                    <path d="M23,39.672 C23,40.224 22.552,40.672 22,40.672 C21.448,40.672 21,40.224 21,39.672 C21,39.12 21.448,38.672 22,38.672 C22.552,38.672 23,39.12 23,39.672" id="Fill-787" fill="#00CFF1"></path>
                    <path d="M26,44.672 C26,45.224 25.552,45.672 25,45.672 C24.448,45.672 24,45.224 24,44.672 C24,44.12 24.448,43.672 25,43.672 C25.552,43.672 26,44.12 26,44.672" id="Fill-788" fill="#00CFF1"></path>
                    <path d="M25,33.672 C25,34.224 24.552,34.672 24,34.672 C23.448,34.672 23,34.224 23,33.672 C23,33.12 23.448,32.672 24,32.672 C24.552,32.672 25,33.12 25,33.672" id="Fill-789" fill="#00CFF1"></path>
                    <path d="M13.368,39.18 L11.176,41.229 C10.372,41.979 9.1,41.936 8.349,41.132 L6.301,38.94 C5.55,38.137 5.593,36.865 6.397,36.114 L8.589,34.066 C9.393,33.314 10.665,33.357 11.416,34.161 L13.464,36.354 C14.215,37.157 14.172,38.429 13.368,39.18 L13.368,39.18 Z" id="Fill-790" fill="#D0E8F9"></path>
                    <path d="M13.368,39.18 L11.176,41.229 C10.372,41.979 9.1,41.936 8.349,41.132 L6.301,38.94 C5.55,38.137 5.593,36.865 6.397,36.114 L8.589,34.066 C9.393,33.314 10.665,33.357 11.416,34.161 L13.464,36.354 C14.215,37.157 14.172,38.429 13.368,39.18 L13.368,39.18 Z" id="Stroke-791" stroke="#00CFF1" stroke-width="2" stroke-linecap="round" stroke-linejoin="round"></path>
                    <path d="M19.368,31.416 L17.176,33.464 C16.372,34.215 15.1,34.172 14.349,33.368 L12.301,31.176 C11.55,30.372 11.593,29.1 12.397,28.349 L14.589,26.301 C15.393,25.55 16.665,25.593 17.416,26.397 L19.464,28.589 C20.215,29.393 20.172,30.665 19.368,31.416 L19.368,31.416 Z" id="Fill-792" fill="#D0E8F9"></path>
                    <path d="M19.368,31.416 L17.176,33.464 C16.372,34.215 15.1,34.172 14.349,33.368 L12.301,31.176 C11.55,30.372 11.593,29.1 12.397,28.349 L14.589,26.301 C15.393,25.55 16.665,25.593 17.416,26.397 L19.464,28.589 C20.215,29.393 20.172,30.665 19.368,31.416 L19.368,31.416 Z" id="Stroke-793" stroke="#00CFF1" stroke-width="2" stroke-linecap="round" stroke-linejoin="round"></path>
                    <path d="M11.368,26.416 L9.176,28.464 C8.372,29.215 7.1,29.172 6.349,28.368 L4.301,26.176 C3.55,25.372 3.593,24.1 4.397,23.349 L6.589,21.301 C7.393,20.55 8.665,20.593 9.416,21.397 L11.464,23.589 C12.215,24.393 12.172,25.665 11.368,26.416 L11.368,26.416 Z" id="Fill-794" fill="#D0E8F9"></path>
                    <path d="M11.368,26.416 L9.176,28.464 C8.372,29.215 7.1,29.172 6.349,28.368 L4.301,26.176 C3.55,25.372 3.593,24.1 4.397,23.349 L6.589,21.301 C7.393,20.55 8.665,20.593 9.416,21.397 L11.464,23.589 C12.215,24.393 12.172,25.665 11.368,26.416 L11.368,26.416 Z" id="Stroke-795" stroke="#00CFF1" stroke-width="2" stroke-linecap="round" stroke-linejoin="round"></path>
                    <path d="M22.368,52.416 L20.176,54.464 C19.372,55.215 18.1,55.172 17.349,54.368 L15.301,52.176 C14.55,51.372 14.593,50.1 15.397,49.349 L17.589,47.301 C18.393,46.55 19.665,46.593 20.416,47.397 L22.464,49.589 C23.215,50.393 23.172,51.665 22.368,52.416 L22.368,52.416 Z" id="Fill-796" fill="#D0E8F9"></path>
                    <path d="M22.368,52.416 L20.176,54.464 C19.372,55.215 18.1,55.172 17.349,54.368 L15.301,52.176 C14.55,51.372 14.593,50.1 15.397,49.349 L17.589,47.301 C18.393,46.55 19.665,46.593 20.416,47.397 L22.464,49.589 C23.215,50.393 23.172,51.665 22.368,52.416 L22.368,52.416 Z" id="Stroke-797" stroke="#00CFF1" stroke-width="2" stroke-linecap="round" stroke-linejoin="round"></path>
                    <path d="M10,47.765 C10,48.317 9.552,48.765 9,48.765 C8.448,48.765 8,48.317 8,47.765 C8,47.212 8.448,46.765 9,46.765 C9.552,46.765 10,47.212 10,47.765" id="Fill-798" fill="#00CFF1"></path>
                    <path d="M30.628,17.088 C30.872,15.97 30.753,14.751 30.148,13.609 C27.463,8.54 22.135,5.088 16,5.088 C9.865,5.088 4.537,8.54 1.852,13.609 C1.247,14.751 1.128,15.97 1.372,17.088 L30.628,17.088 L30.628,17.088 Z" id="Fill-799" fill="#FFFFFF"></path>
                    <path d="M30.628,17.088 C30.872,15.97 30.753,14.751 30.148,13.609 C27.463,8.54 22.135,5.088 16,5.088 C9.865,5.088 4.537,8.54 1.852,13.609 C1.247,14.751 1.128,15.97 1.372,17.088 L30.628,17.088 L30.628,17.088 Z" id="Stroke-800" stroke="#00CFF1" stroke-width="2" stroke-linejoin="round"></path>
                    <path d="M12,55 L30,8 M30,6 L32,8 M32,4 L34,6 M34,2 L36,4 M36,0 L38,2" id="Stroke-801" stroke="#00CFF1" stroke-width="2" stroke-linejoin="round"></path>
                </g>
            </g>
        </g>
    </g>
</svg>