<?xml version="1.0" encoding="UTF-8" standalone="no"?>
<svg width="52px" height="62px" viewBox="0 0 52 62" version="1.1" xmlns="http://www.w3.org/2000/svg" xmlns:xlink="http://www.w3.org/1999/xlink" xmlns:sketch="http://www.bohemiancoding.com/sketch/ns">
    <!-- Generator: Sketch 3.5.2 (25235) - http://www.bohemiancoding.com/sketch -->
    <title>Stopwatch</title>
    <desc>Created with Sketch.</desc>
    <defs></defs>
    <g id="Page-1" stroke="none" stroke-width="1" fill="none" fill-rule="evenodd" sketch:type="MSPage">
        <g id="Icons" sketch:type="MSArtboardGroup" transform="translate(-366.000000, -2520.000000)">
            <g id="Stopwatch" sketch:type="MSLayerGroup" transform="translate(367.000000, 2521.000000)">
                <path d="M50,35.3571429 C50,48.9664286 38.8076087,60 25,60 C11.1923913,60 0,48.9664286 0,35.3571429 C0,21.7467857 11.1923913,10.7142857 25,10.7142857 C38.8076087,10.7142857 50,21.7467857 50,35.3571429 L50,35.3571429 Z" id="Fill-3162" fill="#FFFFFF" sketch:type="MSShapeGroup"></path>
                <path d="M50,35.3571429 C50,48.9664286 38.8076087,60 25,60 C11.1923913,60 0,48.9664286 0,35.3571429 C0,21.7467857 11.1923913,10.7142857 25,10.7142857 C38.8076087,10.7142857 50,21.7467857 50,35.3571429 L50,35.3571429 Z" id="Stroke-3163" stroke="#66CCCC" stroke-width="2" stroke-linejoin="round" sketch:type="MSShapeGroup"></path>
                <path d="M26.1304348,56.7428571 C25.5543478,56.7428571 25.0869565,56.3035714 25.0543478,55.7357143 C25.0326087,55.4464286 25.1304348,55.1678571 25.326087,54.9535714 C25.5217391,54.75 25.7826087,54.6203571 26.076087,54.6 C26.7826087,54.5678571 27.4673913,54.4917857 28.1086957,54.3857143 C28.6956522,54.3 29.2608696,54.7060714 29.3586957,55.275 C29.3695652,55.3285714 29.3695652,55.3810714 29.3695652,55.4357143 C29.3695652,55.9596429 28.9782609,56.4214286 28.4565217,56.5071429 C27.6847826,56.625 26.923913,56.7 26.1956522,56.7428571 L26.1304348,56.7428571 L26.1304348,56.7428571 Z M21.826087,56.5392857 C21.7717391,56.5392857 21.7173913,56.5285714 21.6630435,56.5285714 C20.9130435,56.4096429 20.1630435,56.25 19.4347826,56.0678571 C19.1521739,55.9928571 18.9130435,55.8214286 18.7717391,55.5632143 C18.6195652,55.3178571 18.5869565,55.0392857 18.6630435,54.7596429 C18.8043478,54.2035714 19.4130435,53.85 19.9891304,53.9892857 C20.6521739,54.1714286 21.326087,54.3 21.9891304,54.4060714 C22.5217391,54.4821429 22.9130435,54.9417857 22.9130435,55.4571429 C22.9130435,55.5203571 22.9130435,55.575 22.9021739,55.6285714 C22.8152174,56.1535714 22.3586957,56.5392857 21.826087,56.5392857 L21.826087,56.5392857 Z M32.4456522,55.4142857 L32.4456522,55.4142857 C32,55.4142857 31.5978261,55.1464286 31.4347826,54.7285714 C31.3369565,54.4607143 31.3369565,54.1714286 31.4565217,53.9025 C31.576087,53.6453571 31.7934783,53.4428571 32.0543478,53.3346429 C32.7065217,53.0989286 33.3369565,52.8214286 33.923913,52.5214286 C34.4456522,52.2535714 35.1304348,52.4775 35.3913043,52.9821429 C35.4673913,53.1321429 35.5108696,53.2810714 35.5108696,53.4428571 C35.5217391,53.8607143 35.2826087,54.2357143 34.9130435,54.4285714 C34.2391304,54.7714286 33.5326087,55.0821429 32.8369565,55.3382143 C32.7173913,55.3928571 32.576087,55.4142857 32.4456522,55.4142857 L32.4456522,55.4142857 Z M15.673913,54.5892857 C15.5,54.5892857 15.3369565,54.5571429 15.1847826,54.4821429 C14.5,54.1382143 13.8369565,53.7642857 13.2065217,53.3678571 C12.9673913,53.2071429 12.8043478,52.9703571 12.7391304,52.6928571 C12.673913,52.4035714 12.7282609,52.1239286 12.8913043,51.8785714 C13.2065217,51.4060714 13.9021739,51.2571429 14.3913043,51.5678571 C14.9565217,51.9214286 15.5543478,52.2535714 16.1630435,52.5642857 C16.5326087,52.7453571 16.7717391,53.1321429 16.7608696,53.5392857 C16.7608696,53.7 16.7173913,53.8607143 16.6521739,53.9989286 C16.4565217,54.3642857 16.0869565,54.5892857 15.673913,54.5892857 L15.673913,54.5892857 Z M38.0326087,52.2214286 C37.7065217,52.2214286 37.4021739,52.0714286 37.1956522,51.825 C37.0108696,51.6 36.923913,51.3203571 36.9565217,51.0428571 C36.9891304,50.7535714 37.1195652,50.4964286 37.3478261,50.3142857 C37.8586957,49.9071429 38.3586957,49.4678571 38.8369565,48.9953571 L38.8804348,48.9525 C39.2934783,48.5560714 40,48.5560714 40.4021739,48.9642857 C40.6086957,49.1571429 40.7282609,49.425 40.7282609,49.7132143 C40.7282609,50.0035714 40.6086957,50.2714286 40.4130435,50.4739286 L40.3695652,50.5071429 C39.8586957,51.0096429 39.3043478,51.5025 38.7282609,51.975 C38.5326087,52.1357143 38.2826087,52.2214286 38.0326087,52.2214286 L38.0326087,52.2214286 Z M10.4456522,50.8703571 C10.1521739,50.8703571 9.88043478,50.7535714 9.67391304,50.5596429 C9.66304348,50.5392857 9.64130435,50.5285714 9.63043478,50.5071429 C9.10869565,49.9928571 8.59782609,49.4357143 8.10869565,48.8464286 C7.72826087,48.3857143 7.80434783,47.7096429 8.26086957,47.3357143 C8.7173913,46.9821429 9.43478261,47.0464286 9.79347826,47.4964286 C10.2282609,48.0203571 10.6956522,48.525 11.1630435,48.9953571 L11.2065217,49.0392857 C11.4130435,49.2321429 11.5217391,49.5107143 11.5326087,49.7892857 C11.5326087,50.0785714 11.4130435,50.3464286 11.2173913,50.55 C11.0108696,50.7535714 10.7282609,50.8703571 10.4456522,50.8703571 L10.4456522,50.8703571 Z M42.3478261,47.4739286 C42.1304348,47.4739286 41.9347826,47.4214286 41.7608696,47.3025 C41.25,46.9821429 41.1086957,46.3167857 41.4347826,45.825 C41.7934783,45.2785714 42.1413043,44.6892857 42.4565217,44.0785714 C42.7173913,43.5642857 43.3804348,43.35 43.9130435,43.6071429 C44.2826087,43.7892857 44.5217391,44.1739286 44.5108696,44.5810714 C44.5108696,44.7428571 44.4673913,44.8917857 44.3913043,45.0428571 C44.0543478,45.6953571 43.673913,46.35 43.2608696,46.9917857 C43.0543478,47.2928571 42.7173913,47.4739286 42.3478261,47.4739286 L42.3478261,47.4739286 Z M6.59782609,45.675 C6.18478261,45.675 5.81521739,45.45 5.63043478,45.0857143 C5.2826087,44.4321429 4.97826087,43.7346429 4.70652174,43.0392857 C4.60869565,42.7714286 4.60869565,42.4810714 4.72826087,42.225 C4.84782609,41.9571429 5.06521739,41.7632143 5.33695652,41.6571429 C5.88043478,41.4525 6.5326087,41.7428571 6.73913043,42.2785714 C6.97826087,42.9 7.26086957,43.5096429 7.56521739,44.1214286 C7.64130435,44.2596429 7.68478261,44.4214286 7.68478261,44.5810714 C7.69565217,44.9892857 7.45652174,45.375 7.08695652,45.5571429 C6.93478261,45.6321429 6.77173913,45.675 6.59782609,45.675 L6.59782609,45.675 Z M44.9565217,41.6571429 C44.8586957,41.6571429 44.7717391,41.6464286 44.673913,41.625 C44.0978261,41.475 43.75,40.8857143 43.9021739,40.3071429 C44.076087,39.6642857 44.2173913,38.9989286 44.326087,38.3346429 C44.4130435,37.7678571 44.9891304,37.3489286 45.5652174,37.4346429 C46.0869565,37.5214286 46.4891304,37.9714286 46.4891304,38.5060714 C46.4782609,38.5607143 46.4782609,38.6142857 46.4673913,38.6678571 C46.3586957,39.3964286 46.1956522,40.1357143 46.0108696,40.8535714 C45.8804348,41.3239286 45.4456522,41.6571429 44.9565217,41.6571429 L44.9565217,41.6571429 Z M4.60869565,39.6203571 C4.07608696,39.6203571 3.61956522,39.2239286 3.5326087,38.7107143 C3.42391304,37.9821429 3.33695652,37.2321429 3.30434783,36.4821429 C3.2826087,36.1917857 3.38043478,35.9239286 3.57608696,35.7107143 C3.77173913,35.4964286 4.04347826,35.3785714 4.32608696,35.3571429 C4.93478261,35.3346429 5.44565217,35.7846429 5.4673913,36.375 C5.51086957,37.0607143 5.57608696,37.7357143 5.68478261,38.3775 C5.69565217,38.4321429 5.69565217,38.4857143 5.69565217,38.5392857 C5.69565217,39.0642857 5.30434783,39.525 4.7826087,39.6 C4.7173913,39.6107143 4.66304348,39.6203571 4.60869565,39.6203571 L4.60869565,39.6203571 Z M45.6086957,35.325 C45.0326087,35.325 44.5543478,34.875 44.5217391,34.3071429 C44.4891304,33.6535714 44.423913,32.9892857 44.3152174,32.3464286 L44.3043478,32.3025 C44.3043478,32.25 44.2934783,32.1964286 44.2934783,32.1428571 C44.2934783,31.6071429 44.6847826,31.1571429 45.2173913,31.0821429 C45.8043478,30.9964286 46.3695652,31.3821429 46.4565217,31.9714286 C46.576087,32.6785714 46.6521739,33.4285714 46.6956522,34.2 C46.7282609,34.7892857 46.2717391,35.2917857 45.673913,35.325 L45.6086957,35.325 L45.6086957,35.325 Z M4.60869565,33.2571429 C4.54347826,33.2571429 4.48913043,33.2453571 4.43478261,33.2357143 C3.90217391,33.1607143 3.52173913,32.7096429 3.52173913,32.1739286 C3.52173913,32.1203571 3.52173913,32.0678571 3.5326087,32.0142857 C3.65217391,31.2857143 3.80434783,30.5464286 4,29.8178571 C4.15217391,29.2607143 4.76086957,28.9060714 5.33695652,29.0678571 C5.60869565,29.1321429 5.84782609,29.3132143 5.98913043,29.5607143 C6.14130435,29.8060714 6.17391304,30.0964286 6.10869565,30.375 C5.93478261,30.9964286 5.79347826,31.65 5.68478261,32.3142857 L5.68478261,32.3464286 C5.59782609,32.8714286 5.14130435,33.2571429 4.60869565,33.2571429 L4.60869565,33.2571429 Z M44.2717391,29.1 C43.8152174,29.1 43.4130435,28.8203571 43.25,28.4142857 C43.0217391,27.8346429 42.7717391,27.2464286 42.4782609,26.6775 L42.4130435,26.5714286 C42.3478261,26.4214286 42.3043478,26.2714286 42.3043478,26.1107143 C42.2934783,25.6917857 42.5108696,25.3178571 42.8913043,25.125 C43.4130435,24.8678571 44.0869565,25.0821429 44.3586957,25.5964286 C44.6956522,26.25 45.0108696,26.9453571 45.2826087,27.6428571 C45.5,28.1882143 45.2173913,28.8107143 44.6521739,29.025 C44.5326087,29.0785714 44.4021739,29.1 44.2717391,29.1 L44.2717391,29.1 Z M6.58695652,27.1928571 C6.42391304,27.1928571 6.25,27.15 6.09782609,27.075 C5.72826087,26.8928571 5.5,26.5178571 5.5,26.0989286 C5.51086957,25.9392857 5.54347826,25.7775 5.61956522,25.6392857 C5.9673913,24.9642857 6.35869565,24.3107143 6.76086957,23.7 C7.07608696,23.2178571 7.77173913,23.0667857 8.26086957,23.3775 C8.5,23.5392857 8.67391304,23.7739286 8.72826087,24.0535714 C8.79347826,24.3321429 8.73913043,24.6203571 8.58695652,24.8571429 C8.20652174,25.4357143 7.85869565,26.025 7.56521739,26.6035714 L7.54347826,26.6346429 C7.34782609,26.9785714 6.98913043,27.1928571 6.58695652,27.1928571 L6.58695652,27.1928571 Z M41.0326087,23.5928571 C40.7065217,23.5928571 40.3913043,23.4428571 40.1847826,23.1953571 C39.7608696,22.6821429 39.3043478,22.1892857 38.8369565,21.7178571 C38.826087,21.7071429 38.8152174,21.7071429 38.8043478,21.6964286 C38.6086957,21.4928571 38.4891304,21.225 38.4891304,20.9357143 C38.4891304,20.6560714 38.6086957,20.3882143 38.8152174,20.1857143 C39.2173913,19.7785714 39.923913,19.7678571 40.3369565,20.1632143 L40.3478261,20.175 C40.3586957,20.1857143 40.3695652,20.2060714 40.3804348,20.2178571 L40.3913043,20.2285714 C40.9130435,20.7321429 41.4021739,21.2775 41.8695652,21.8464286 C42.0543478,22.0607143 42.1413043,22.3392857 42.1086957,22.6285714 C42.076087,22.9071429 41.9347826,23.1642857 41.7173913,23.3464286 C41.5217391,23.5071429 41.2826087,23.5928571 41.0326087,23.5928571 L41.0326087,23.5928571 Z M10.3804348,22.0382143 C10.0978261,22.0382143 9.82608696,21.9321429 9.61956522,21.7275 C9.41304348,21.525 9.29347826,21.2571429 9.29347826,20.9667857 C9.29347826,20.6892857 9.41304348,20.4214286 9.61956522,20.2178571 L9.63043478,20.2060714 C10.1521739,19.6821429 10.7173913,19.1775 11.3043478,18.7178571 C11.75,18.3535714 12.4673913,18.4285714 12.8369565,18.8667857 C13.0108696,19.0917857 13.0978261,19.3714286 13.0652174,19.6607143 C13.0434783,19.9382143 12.9021739,20.1964286 12.673913,20.3785714 C12.1521739,20.7964286 11.6521739,21.2464286 11.1630435,21.7178571 L11.1521739,21.7275 C10.9456522,21.9321429 10.673913,22.0382143 10.3804348,22.0382143 L10.3804348,22.0382143 Z M36.2282609,19.3392857 C36.0108696,19.3392857 35.8043478,19.275 35.6304348,19.1678571 C35.076087,18.8035714 34.4782609,18.4714286 33.8586957,18.1607143 C33.4891304,17.9678571 33.2608696,17.5928571 33.2608696,17.1857143 C33.2717391,17.025 33.3043478,16.8642857 33.3804348,16.7239286 C33.6521739,16.2 34.3152174,15.9857143 34.8478261,16.2428571 C35.5108696,16.575 36.173913,16.9489286 36.8152174,17.3678571 C37.0543478,17.5178571 37.2282609,17.7642857 37.2826087,18.0428571 C37.3478261,18.3214286 37.2934783,18.6107143 37.1413043,18.8464286 C36.9347826,19.1571429 36.5978261,19.3392857 36.2282609,19.3392857 L36.2282609,19.3392857 Z M14.6304348,17.7096429 C14.5652174,17.5703571 14.5217391,17.4107143 14.5217391,17.25 C14.5108696,16.8428571 14.7391304,16.4560714 15.1086957,16.275 C15.7717391,15.9321429 16.4782609,15.6321429 17.1847826,15.3642857 C17.7391304,15.15 18.3913043,15.4392857 18.5978261,15.975 C18.8043478,16.5214286 18.5217391,17.1428571 17.9673913,17.3571429 C17.3695652,17.5821429 16.826087,17.8178571 16.3043478,18.075 L16.0978261,18.1821429 C15.9456522,18.2571429 15.7717391,18.3 15.6086957,18.3 C15.1956522,18.3 14.826087,18.075 14.6304348,17.7096429 Z M30.326087,16.7571429 C30.2282609,16.7571429 30.1304348,16.7464286 30.0434783,16.7239286 C29.4130435,16.5642857 28.7391304,16.425 28.0326087,16.3071429 C27.5,16.2214286 27.1195652,15.7810714 27.1195652,15.2453571 C27.1195652,15.1928571 27.1195652,15.1392857 27.1304348,15.0857143 C27.2282609,14.5071429 27.7826087,14.1 28.3695652,14.1964286 C29.1086957,14.3035714 29.8586957,14.4642857 30.5978261,14.6571429 C30.8804348,14.7321429 31.1086957,14.9035714 31.2608696,15.15 C31.4021739,15.3964286 31.4456522,15.6857143 31.3695652,15.9632143 C31.2391304,16.4357143 30.8152174,16.7571429 30.326087,16.7571429 L30.326087,16.7571429 Z M21.75,16.3285714 C21.2173913,16.3285714 20.75,15.9428571 20.673913,15.4275 C20.6630435,15.375 20.6630435,15.3214286 20.6630435,15.2678571 C20.6521739,14.7321429 21.0434783,14.2821429 21.576087,14.1964286 C22.3369565,14.0785714 23.0978261,14.0025 23.8369565,13.9714286 C24.423913,13.9178571 24.9456522,14.3892857 24.9782609,14.9775 C25.0108696,15.5667857 24.5543478,16.0714286 23.9565217,16.1025 C23.2826087,16.1453571 22.5978261,16.2107143 21.9130435,16.3167857 C21.8586957,16.3285714 21.8043478,16.3285714 21.75,16.3285714 L21.75,16.3285714 Z" id="Fill-3164" fill="#66CCCC" sketch:type="MSShapeGroup"></path>
                <path d="M30.4347826,5.35714286 C30.4347826,8.31535714 28.001087,10.7142857 25,10.7142857 C21.998913,10.7142857 19.5652174,8.31535714 19.5652174,5.35714286 C19.5652174,2.39892857 21.998913,0 25,0 C28.001087,0 30.4347826,2.39892857 30.4347826,5.35714286 L30.4347826,5.35714286 Z" id="Stroke-3165" stroke="#66CCCC" stroke-width="2" stroke-linejoin="round" sketch:type="MSShapeGroup"></path>
                <path d="M22.826087,5.35714286 L27.173913,5.35714286" id="Stroke-3166" stroke="#66CCCC" stroke-width="2" stroke-linecap="round" stroke-linejoin="round" sketch:type="MSShapeGroup"></path>
                <path d="M25,5.35714286 L25,10.7142857" id="Stroke-3167" stroke="#66CCCC" stroke-width="2" stroke-linejoin="round" sketch:type="MSShapeGroup"></path>
                <path d="M22.5043478,37.8728571 L22.5043478,37.8728571 C21.3065217,36.6921429 21.4913043,34.7282143 22.8902174,33.7853571 L36.9347826,23.3110714 C37.1597826,23.16 37.4315217,23.4267857 37.2771739,23.6485714 L26.6521739,37.4935714 C25.6945652,38.8714286 23.7032609,39.0546429 22.5043478,37.8728571 L22.5043478,37.8728571 Z" id="Fill-3168" fill-opacity="0.403391078" fill="#66CCCC" sketch:type="MSShapeGroup"></path>
                <path d="M22.8902174,33.7853571 L36.9347826,23.3110714 C37.1597826,23.16 37.4315217,23.4267857 37.2771739,23.6485714 L26.6521739,37.4935714 C25.6945652,38.8714286 23.7032609,39.0546429 22.5043478,37.8728571 C21.3065217,36.6921429 21.4913043,34.7282143 22.8902174,33.7853571 Z" id="Stroke-3169" stroke="#66CCCC" stroke-width="2" stroke-linejoin="round" sketch:type="MSShapeGroup"></path>
            </g>
        </g>
    </g>
</svg>