<?xml version="1.0" encoding="UTF-8" standalone="no"?>
<svg width="48px" height="58px" viewBox="0 0 48 58" version="1.1" xmlns="http://www.w3.org/2000/svg" xmlns:xlink="http://www.w3.org/1999/xlink" xmlns:sketch="http://www.bohemiancoding.com/sketch/ns">
    <!-- Generator: Sketch 3.5.1 (25234) - http://www.bohemiancoding.com/sketch -->
    <title>Stopwatch</title>
    <desc>Created with Sketch.</desc>
    <defs></defs>
    <g id="Page-1" stroke="none" stroke-width="1" fill="none" fill-rule="evenodd" sketch:type="MSPage">
        <g id="Icons" sketch:type="MSArtboardGroup" transform="translate(-366.000000, -2520.000000)">
            <g id="Stopwatch" sketch:type="MSLayerGroup" transform="translate(367.000000, 2521.000000)">
                <path d="M46,33 C46,45.702 35.703,56 23,56 C10.297,56 0,45.702 0,33 C0,20.297 10.297,10 23,10 C35.703,10 46,20.297 46,33 L46,33 Z" id="Fill-3162" fill="#FFFFFF" sketch:type="MSShapeGroup"></path>
                <path d="M46,33 C46,45.702 35.703,56 23,56 C10.297,56 0,45.702 0,33 C0,20.297 10.297,10 23,10 C35.703,10 46,20.297 46,33 L46,33 Z" id="Stroke-3163" stroke="#00CFF1" stroke-width="2" stroke-linejoin="round" sketch:type="MSShapeGroup"></path>
                <path d="M24.04,52.96 C23.51,52.96 23.08,52.55 23.05,52.02 C23.03,51.75 23.12,51.49 23.3,51.29 C23.48,51.1 23.72,50.979 23.99,50.96 C24.64,50.93 25.27,50.859 25.86,50.76 C26.4,50.68 26.92,51.059 27.01,51.59 C27.02,51.64 27.02,51.689 27.02,51.74 C27.02,52.229 26.66,52.66 26.18,52.74 C25.47,52.85 24.77,52.92 24.1,52.96 L24.04,52.96 L24.04,52.96 Z M20.08,52.77 C20.03,52.77 19.98,52.76 19.93,52.76 C19.24,52.649 18.55,52.5 17.88,52.33 C17.62,52.26 17.4,52.1 17.27,51.859 C17.13,51.63 17.1,51.37 17.17,51.109 C17.3,50.59 17.86,50.26 18.39,50.39 C19,50.56 19.62,50.68 20.23,50.779 C20.72,50.85 21.08,51.279 21.08,51.76 C21.08,51.819 21.08,51.87 21.07,51.92 C20.99,52.41 20.57,52.77 20.08,52.77 L20.08,52.77 Z M29.85,51.72 L29.85,51.72 C29.44,51.72 29.07,51.47 28.92,51.08 C28.83,50.83 28.83,50.56 28.94,50.309 C29.05,50.069 29.25,49.88 29.49,49.779 C30.09,49.559 30.67,49.3 31.21,49.02 C31.69,48.77 32.32,48.979 32.56,49.45 C32.63,49.59 32.67,49.729 32.67,49.88 C32.68,50.27 32.46,50.62 32.12,50.8 C31.5,51.12 30.85,51.41 30.21,51.649 C30.1,51.7 29.97,51.72 29.85,51.72 L29.85,51.72 Z M14.42,50.95 C14.26,50.95 14.11,50.92 13.97,50.85 C13.34,50.529 12.73,50.18 12.15,49.81 C11.93,49.66 11.78,49.439 11.72,49.18 C11.66,48.91 11.71,48.649 11.86,48.42 C12.15,47.979 12.79,47.84 13.24,48.13 C13.76,48.46 14.31,48.77 14.87,49.06 C15.21,49.229 15.43,49.59 15.42,49.97 C15.42,50.12 15.38,50.27 15.32,50.399 C15.14,50.74 14.8,50.95 14.42,50.95 L14.42,50.95 Z M34.99,48.74 C34.69,48.74 34.41,48.6 34.22,48.37 C34.05,48.16 33.97,47.899 34,47.64 C34.03,47.37 34.15,47.13 34.36,46.96 C34.83,46.58 35.29,46.17 35.73,45.729 L35.77,45.689 C36.15,45.319 36.8,45.319 37.17,45.7 C37.36,45.88 37.47,46.13 37.47,46.399 C37.47,46.67 37.36,46.92 37.18,47.109 L37.14,47.14 C36.67,47.609 36.16,48.069 35.63,48.51 C35.45,48.66 35.22,48.74 34.99,48.74 L34.99,48.74 Z M9.61,47.479 C9.34,47.479 9.09,47.37 8.9,47.189 C8.89,47.17 8.87,47.16 8.86,47.14 C8.38,46.66 7.91,46.14 7.46,45.59 C7.11,45.16 7.18,44.529 7.6,44.18 C8.02,43.85 8.68,43.91 9.01,44.33 C9.41,44.819 9.84,45.29 10.27,45.729 L10.31,45.77 C10.5,45.95 10.6,46.21 10.61,46.47 C10.61,46.74 10.5,46.99 10.32,47.18 C10.13,47.37 9.87,47.479 9.61,47.479 L9.61,47.479 Z M38.96,44.309 C38.76,44.309 38.58,44.26 38.42,44.149 C37.95,43.85 37.82,43.229 38.12,42.77 C38.45,42.26 38.77,41.71 39.06,41.14 C39.3,40.66 39.91,40.46 40.4,40.7 C40.74,40.87 40.96,41.229 40.95,41.609 C40.95,41.76 40.91,41.899 40.84,42.04 C40.53,42.649 40.18,43.26 39.8,43.859 C39.61,44.14 39.3,44.309 38.96,44.309 L38.96,44.309 Z M6.07,42.63 C5.69,42.63 5.35,42.42 5.18,42.08 C4.86,41.47 4.58,40.819 4.33,40.17 C4.24,39.92 4.24,39.649 4.35,39.41 C4.46,39.16 4.66,38.979 4.91,38.88 C5.41,38.689 6.01,38.96 6.2,39.46 C6.42,40.04 6.68,40.609 6.96,41.18 C7.03,41.309 7.07,41.46 7.07,41.609 C7.08,41.99 6.86,42.35 6.52,42.52 C6.38,42.59 6.23,42.63 6.07,42.63 L6.07,42.63 Z M41.36,38.88 C41.27,38.88 41.19,38.87 41.1,38.85 C40.57,38.71 40.25,38.16 40.39,37.62 C40.55,37.02 40.68,36.399 40.78,35.779 C40.86,35.25 41.39,34.859 41.92,34.939 C42.4,35.02 42.77,35.44 42.77,35.939 C42.76,35.99 42.76,36.04 42.75,36.09 C42.65,36.77 42.5,37.46 42.33,38.13 C42.21,38.569 41.81,38.88 41.36,38.88 L41.36,38.88 Z M4.24,36.979 C3.75,36.979 3.33,36.609 3.25,36.13 C3.15,35.45 3.07,34.75 3.04,34.05 C3.02,33.779 3.11,33.529 3.29,33.33 C3.47,33.13 3.72,33.02 3.98,33 C4.54,32.979 5.01,33.399 5.03,33.95 C5.07,34.59 5.13,35.22 5.23,35.819 C5.24,35.87 5.24,35.92 5.24,35.97 C5.24,36.46 4.88,36.89 4.4,36.96 C4.34,36.97 4.29,36.979 4.24,36.979 L4.24,36.979 Z M41.96,32.97 C41.43,32.97 40.99,32.55 40.96,32.02 C40.93,31.41 40.87,30.79 40.77,30.19 L40.76,30.149 C40.76,30.1 40.75,30.05 40.75,30 C40.75,29.5 41.11,29.08 41.6,29.01 C42.14,28.93 42.66,29.29 42.74,29.84 C42.85,30.5 42.92,31.2 42.96,31.92 C42.99,32.47 42.57,32.939 42.02,32.97 L41.96,32.97 L41.96,32.97 Z M4.24,31.04 C4.18,31.04 4.13,31.029 4.08,31.02 C3.59,30.95 3.24,30.529 3.24,30.029 C3.24,29.979 3.24,29.93 3.25,29.88 C3.36,29.2 3.5,28.51 3.68,27.83 C3.82,27.31 4.38,26.979 4.91,27.13 C5.16,27.19 5.38,27.359 5.51,27.59 C5.65,27.819 5.68,28.09 5.62,28.35 C5.46,28.93 5.33,29.54 5.23,30.16 L5.23,30.19 C5.15,30.68 4.73,31.04 4.24,31.04 L4.24,31.04 Z M40.73,27.16 C40.31,27.16 39.94,26.899 39.79,26.52 C39.58,25.979 39.35,25.43 39.08,24.899 L39.02,24.8 C38.96,24.66 38.92,24.52 38.92,24.37 C38.91,23.979 39.11,23.63 39.46,23.45 C39.94,23.21 40.56,23.41 40.81,23.89 C41.12,24.5 41.41,25.149 41.66,25.8 C41.86,26.309 41.6,26.89 41.08,27.09 C40.97,27.14 40.85,27.16 40.73,27.16 L40.73,27.16 Z M6.06,25.38 C5.91,25.38 5.75,25.34 5.61,25.27 C5.27,25.1 5.06,24.75 5.06,24.359 C5.07,24.21 5.1,24.059 5.17,23.93 C5.49,23.3 5.85,22.69 6.22,22.12 C6.51,21.67 7.15,21.529 7.6,21.819 C7.82,21.97 7.98,22.189 8.03,22.45 C8.09,22.71 8.04,22.979 7.9,23.2 C7.55,23.74 7.23,24.29 6.96,24.83 L6.94,24.859 C6.76,25.18 6.43,25.38 6.06,25.38 L6.06,25.38 Z M37.75,22.02 C37.45,22.02 37.16,21.88 36.97,21.649 C36.58,21.17 36.16,20.71 35.73,20.27 C35.72,20.26 35.71,20.26 35.7,20.25 C35.52,20.06 35.41,19.81 35.41,19.54 C35.41,19.279 35.52,19.029 35.71,18.84 C36.08,18.46 36.73,18.45 37.11,18.819 L37.12,18.83 C37.13,18.84 37.14,18.859 37.15,18.87 L37.16,18.88 C37.64,19.35 38.09,19.859 38.52,20.39 C38.69,20.59 38.77,20.85 38.74,21.12 C38.71,21.38 38.58,21.62 38.38,21.79 C38.2,21.94 37.98,22.02 37.75,22.02 L37.75,22.02 Z M9.55,20.569 C9.29,20.569 9.04,20.47 8.85,20.279 C8.66,20.09 8.55,19.84 8.55,19.569 C8.55,19.31 8.66,19.06 8.85,18.87 L8.86,18.859 C9.34,18.37 9.86,17.899 10.4,17.47 C10.81,17.13 11.47,17.2 11.81,17.609 C11.97,17.819 12.05,18.08 12.02,18.35 C12,18.609 11.87,18.85 11.66,19.02 C11.18,19.41 10.72,19.83 10.27,20.27 L10.26,20.279 C10.07,20.47 9.82,20.569 9.55,20.569 L9.55,20.569 Z M33.33,18.05 C33.13,18.05 32.94,17.99 32.78,17.89 C32.27,17.55 31.72,17.24 31.15,16.95 C30.81,16.77 30.6,16.42 30.6,16.04 C30.61,15.89 30.64,15.74 30.71,15.609 C30.96,15.12 31.57,14.92 32.06,15.16 C32.67,15.47 33.28,15.819 33.87,16.21 C34.09,16.35 34.25,16.58 34.3,16.84 C34.36,17.1 34.31,17.37 34.17,17.59 C33.98,17.88 33.67,18.05 33.33,18.05 L33.33,18.05 Z M14.36,17.08 C13.98,17.08 13.64,16.87 13.46,16.529 C13.4,16.399 13.36,16.25 13.36,16.1 C13.35,15.72 13.56,15.359 13.9,15.19 C14.51,14.87 15.16,14.59 15.81,14.34 C16.32,14.14 16.92,14.41 17.11,14.91 C17.3,15.42 17.04,16 16.53,16.2 C15.98,16.41 15.48,16.63 15,16.87 L14.81,16.97 C14.67,17.04 14.51,17.08 14.36,17.08 L14.36,17.08 Z M27.9,15.64 C27.81,15.64 27.72,15.63 27.64,15.609 C27.06,15.46 26.44,15.33 25.79,15.22 C25.3,15.14 24.95,14.729 24.95,14.229 C24.95,14.18 24.95,14.13 24.96,14.08 C25.05,13.54 25.56,13.16 26.1,13.25 C26.78,13.35 27.47,13.5 28.15,13.68 C28.41,13.75 28.62,13.91 28.76,14.14 C28.89,14.37 28.93,14.64 28.86,14.899 C28.74,15.34 28.35,15.64 27.9,15.64 L27.9,15.64 Z M20.01,15.24 C19.52,15.24 19.09,14.88 19.02,14.399 C19.01,14.35 19.01,14.3 19.01,14.25 C19,13.75 19.36,13.33 19.85,13.25 C20.55,13.14 21.25,13.069 21.93,13.04 C22.47,12.99 22.95,13.43 22.98,13.979 C23.01,14.529 22.59,15 22.04,15.029 C21.42,15.069 20.79,15.13 20.16,15.229 C20.11,15.24 20.06,15.24 20.01,15.24 L20.01,15.24 Z" id="Fill-3164" fill="#00CFF1" sketch:type="MSShapeGroup"></path>
                <path d="M28,5 C28,7.761 25.761,10 23,10 C20.239,10 18,7.761 18,5 C18,2.239 20.239,0 23,0 C25.761,0 28,2.239 28,5 L28,5 Z" id="Stroke-3165" stroke="#00CFF1" stroke-width="2" stroke-linejoin="round" sketch:type="MSShapeGroup"></path>
                <path d="M21,5 L25,5" id="Stroke-3166" stroke="#00CFF1" stroke-width="2" stroke-linecap="round" stroke-linejoin="round" sketch:type="MSShapeGroup"></path>
                <path d="M23,5 L23,10" id="Stroke-3167" stroke="#00CFF1" stroke-width="2" stroke-linejoin="round" sketch:type="MSShapeGroup"></path>
                <path d="M20.704,35.348 L20.704,35.348 C19.602,34.246 19.772,32.413 21.059,31.533 L33.98,21.757 C34.187,21.616 34.437,21.865 34.295,22.072 L24.52,34.994 C23.639,36.28 21.807,36.451 20.704,35.348 L20.704,35.348 Z" id="Fill-3168" fill-opacity="0.3" fill="#00CFF1" sketch:type="MSShapeGroup"></path>
                <path d="M20.704,35.348 L20.704,35.348 C19.602,34.246 19.772,32.413 21.059,31.533 L33.98,21.757 C34.187,21.616 34.437,21.865 34.295,22.072 L24.52,34.994 C23.639,36.28 21.807,36.451 20.704,35.348 L20.704,35.348 Z" id="Stroke-3169" stroke="#00CFF1" stroke-width="2" stroke-linejoin="round" sketch:type="MSShapeGroup"></path>
            </g>
        </g>
    </g>
</svg>