<?xml version="1.0" encoding="UTF-8" standalone="no"?>
<svg width="60px" height="62px" viewBox="0 0 60 62" version="1.1" xmlns="http://www.w3.org/2000/svg" xmlns:xlink="http://www.w3.org/1999/xlink" xmlns:sketch="http://www.bohemiancoding.com/sketch/ns">
    <!-- Generator: Sketch 3.5.1 (25234) - http://www.bohemiancoding.com/sketch -->
    <title>Full Wallet</title>
    <desc>Created with Sketch.</desc>
    <defs></defs>
    <g id="Page-1" stroke="none" stroke-width="1" fill="none" fill-rule="evenodd" sketch:type="MSPage">
        <g id="Icons" sketch:type="MSArtboardGroup" transform="translate(-720.000000, -600.000000)">
            <g id="Full-Wallet" sketch:type="MSLayerGroup" transform="translate(720.000000, 601.000000)">
                <path d="M42.528,6.20689655 L56,20.1434483 L55.472,20.6896552 L59,20.6896552 L59,6.20689655 L42.528,6.20689655 L42.528,6.20689655 Z" id="Fill-185" fill="#FFFFFF" sketch:type="MSShapeGroup"></path>
                <path d="M42.528,6.20689655 L56,20.1434483 L55.472,20.6896552 L59,20.6896552 L59,6.20689655 L42.528,6.20689655 L42.528,6.20689655 Z" id="Stroke-186" stroke="#00CFF1" stroke-width="2" stroke-linejoin="round" sketch:type="MSShapeGroup"></path>
                <path d="M25.174,6.20689655 L8,6.20689655 C4.134,6.20689655 1,9.44896552 1,13.4482759 C1,17.4475862 4.134,20.6896552 8,20.6896552 L12.231,20.6896552 L11.702,20.1434483 L25.174,6.20689655 L25.174,6.20689655 Z" id="Fill-187" fill="#FFFFFF" sketch:type="MSShapeGroup"></path>
                <path d="M25.174,6.20689655 L8,6.20689655 C4.134,6.20689655 1,9.44896552 1,13.4482759 C1,17.4475862 4.134,20.6896552 8,20.6896552 L12.231,20.6896552 L11.702,20.1434483 L25.174,6.20689655 L25.174,6.20689655 Z" id="Stroke-188" stroke="#00CFF1" stroke-width="2" stroke-linejoin="round" sketch:type="MSShapeGroup"></path>
                <path d="M1,53.6358621 C1,57.1510345 3.754,60 7.152,60 L59,60 L59,20.6896552 L8,20.6896552 C4.134,20.6896552 1,17.4475862 1,13.4482759 L1,53.6358621 Z" id="Fill-189" fill="#FFFFFF" sketch:type="MSShapeGroup"></path>
                <path d="M1,13.4482759 L1,53.6358621 C1,57.1510345 3.754,60 7.152,60 L59,60 L59,20.6896552 L8,20.6896552 C4.134,20.6896552 1,17.4475862 1,13.4482759 L1,13.4482759 Z" id="Stroke-190" stroke="#00CFF1" stroke-width="2" stroke-linejoin="round" sketch:type="MSShapeGroup"></path>
                <path d="M1,18.6206897 C0.447,18.6206897 0,18.1572414 0,17.5862069 C0,16.7948276 0.108,16.0117241 0.321,15.2555172 C0.477,14.7072414 1.029,14.3927586 1.562,14.552069 C2.092,14.7124138 2.396,15.2865517 2.241,15.8358621 C2.081,16.4027586 2,16.9913793 2,17.5862069 C2,18.1572414 1.553,18.6206897 1,18.6206897 L1,18.6206897 Z M3.416,13.1482759 C3.137,13.1482759 2.858,13.0272414 2.66,12.7913793 C2.299,12.36 2.344,11.7062069 2.761,11.3327586 C3.338,10.8144828 3.982,10.3851724 4.676,10.0572414 C5.179,9.81517241 5.771,10.0468966 6.001,10.5672414 C6.231,11.0865517 6.01,11.7010345 5.508,11.937931 C4.988,12.1841379 4.505,12.5058621 4.071,12.8948276 C3.882,13.0644828 3.648,13.1482759 3.416,13.1482759 L3.416,13.1482759 Z M21.01,11.3793103 C20.458,11.3793103 20.005,10.9158621 20.005,10.3448276 C20.005,9.7737931 20.447,9.31034483 21,9.31034483 L21.01,9.31034483 C21.563,9.31034483 22.01,9.7737931 22.01,10.3448276 C22.01,10.9158621 21.563,11.3793103 21.01,11.3793103 L21.01,11.3793103 Z M17,11.3793103 L15,11.3793103 C14.447,11.3793103 14,10.9158621 14,10.3448276 C14,9.7737931 14.447,9.31034483 15,9.31034483 L17,9.31034483 C17.553,9.31034483 18,9.7737931 18,10.3448276 C18,10.9158621 17.553,11.3793103 17,11.3793103 L17,11.3793103 Z M11,11.3793103 L9,11.3793103 C8.447,11.3793103 8,10.9158621 8,10.3448276 C8,9.7737931 8.447,9.31034483 9,9.31034483 L11,9.31034483 C11.553,9.31034483 12,9.7737931 12,10.3448276 C12,10.9158621 11.553,11.3793103 11,11.3793103 L11,11.3793103 Z" id="Fill-230" fill="#00CFF1" sketch:type="MSShapeGroup"></path>
                <path d="M59,25.862069 L57,25.862069 C56.447,25.862069 56,25.3986207 56,24.8275862 C56,24.2565517 56.447,23.7931034 57,23.7931034 L59,23.7931034 C59.553,23.7931034 60,24.2565517 60,24.8275862 C60,25.3986207 59.553,25.862069 59,25.862069 L59,25.862069 Z M53,25.862069 L51,25.862069 C50.447,25.862069 50,25.3986207 50,24.8275862 C50,24.2565517 50.447,23.7931034 51,23.7931034 L53,23.7931034 C53.553,23.7931034 54,24.2565517 54,24.8275862 C54,25.3986207 53.553,25.862069 53,25.862069 L53,25.862069 Z M47,25.862069 L45,25.862069 C44.447,25.862069 44,25.3986207 44,24.8275862 C44,24.2565517 44.447,23.7931034 45,23.7931034 L47,23.7931034 C47.553,23.7931034 48,24.2565517 48,24.8275862 C48,25.3986207 47.553,25.862069 47,25.862069 L47,25.862069 Z M41,25.862069 L39,25.862069 C38.447,25.862069 38,25.3986207 38,24.8275862 C38,24.2565517 38.447,23.7931034 39,23.7931034 L41,23.7931034 C41.553,23.7931034 42,24.2565517 42,24.8275862 C42,25.3986207 41.553,25.862069 41,25.862069 L41,25.862069 Z M35,25.862069 L33,25.862069 C32.447,25.862069 32,25.3986207 32,24.8275862 C32,24.2565517 32.447,23.7931034 33,23.7931034 L35,23.7931034 C35.553,23.7931034 36,24.2565517 36,24.8275862 C36,25.3986207 35.553,25.862069 35,25.862069 L35,25.862069 Z M29,25.862069 L27,25.862069 C26.447,25.862069 26,25.3986207 26,24.8275862 C26,24.2565517 26.447,23.7931034 27,23.7931034 L29,23.7931034 C29.553,23.7931034 30,24.2565517 30,24.8275862 C30,25.3986207 29.553,25.862069 29,25.862069 L29,25.862069 Z M23,25.862069 L21,25.862069 C20.447,25.862069 20,25.3986207 20,24.8275862 C20,24.2565517 20.447,23.7931034 21,23.7931034 L23,23.7931034 C23.553,23.7931034 24,24.2565517 24,24.8275862 C24,25.3986207 23.553,25.862069 23,25.862069 L23,25.862069 Z M17,25.862069 L15,25.862069 C14.447,25.862069 14,25.3986207 14,24.8275862 C14,24.2565517 14.447,23.7931034 15,23.7931034 L17,23.7931034 C17.553,23.7931034 18,24.2565517 18,24.8275862 C18,25.3986207 17.553,25.862069 17,25.862069 L17,25.862069 Z M11,25.862069 L9,25.862069 C8.447,25.862069 8,25.3986207 8,24.8275862 C8,24.2565517 8.447,23.7931034 9,23.7931034 L11,23.7931034 C11.553,23.7931034 12,24.2565517 12,24.8275862 C12,25.3986207 11.553,25.862069 11,25.862069 L11,25.862069 Z M5.091,25.2103448 C4.952,25.2103448 4.81,25.1793103 4.676,25.1151724 C3.982,24.7872414 3.339,24.357931 2.762,23.8396552 C2.345,23.4651724 2.3,22.8113793 2.662,22.38 C3.023,21.9486207 3.658,21.902069 4.072,22.2775862 C4.506,22.6665517 4.988,22.9882759 5.508,23.2344828 C6.01,23.4713793 6.231,24.0858621 6.001,24.6051724 C5.833,24.9848276 5.471,25.2103448 5.091,25.2103448 L5.091,25.2103448 Z M1.282,20.6606897 C0.85,20.6606897 0.45,20.367931 0.322,19.9168966 C0.108,19.1627586 0,18.3786207 0,17.5862069 C0,17.0151724 0.447,16.5517241 1,16.5517241 C1.553,16.5517241 2,17.0151724 2,17.5862069 C2,18.1810345 2.081,18.7696552 2.242,19.3344828 C2.398,19.8827586 2.094,20.457931 1.563,20.6182759 C1.47,20.6472414 1.375,20.6606897 1.282,20.6606897 L1.282,20.6606897 Z" id="Fill-231" fill="#00CFF1" sketch:type="MSShapeGroup"></path>
                <path d="M59,56.8965517 L57,56.8965517 C56.447,56.8965517 56,56.4331034 56,55.862069 C56,55.2910345 56.447,54.8275862 57,54.8275862 L59,54.8275862 C59.553,54.8275862 60,55.2910345 60,55.862069 C60,56.4331034 59.553,56.8965517 59,56.8965517 L59,56.8965517 Z M53,56.8965517 L51,56.8965517 C50.447,56.8965517 50,56.4331034 50,55.862069 C50,55.2910345 50.447,54.8275862 51,54.8275862 L53,54.8275862 C53.553,54.8275862 54,55.2910345 54,55.862069 C54,56.4331034 53.553,56.8965517 53,56.8965517 L53,56.8965517 Z M47,56.8965517 L45,56.8965517 C44.447,56.8965517 44,56.4331034 44,55.862069 C44,55.2910345 44.447,54.8275862 45,54.8275862 L47,54.8275862 C47.553,54.8275862 48,55.2910345 48,55.862069 C48,56.4331034 47.553,56.8965517 47,56.8965517 L47,56.8965517 Z M41,56.8965517 L39,56.8965517 C38.447,56.8965517 38,56.4331034 38,55.862069 C38,55.2910345 38.447,54.8275862 39,54.8275862 L41,54.8275862 C41.553,54.8275862 42,55.2910345 42,55.862069 C42,56.4331034 41.553,56.8965517 41,56.8965517 L41,56.8965517 Z M35,56.8965517 L33,56.8965517 C32.447,56.8965517 32,56.4331034 32,55.862069 C32,55.2910345 32.447,54.8275862 33,54.8275862 L35,54.8275862 C35.553,54.8275862 36,55.2910345 36,55.862069 C36,56.4331034 35.553,56.8965517 35,56.8965517 L35,56.8965517 Z M29,56.8965517 L27,56.8965517 C26.447,56.8965517 26,56.4331034 26,55.862069 C26,55.2910345 26.447,54.8275862 27,54.8275862 L29,54.8275862 C29.553,54.8275862 30,55.2910345 30,55.862069 C30,56.4331034 29.553,56.8965517 29,56.8965517 L29,56.8965517 Z M23,56.8965517 L21,56.8965517 C20.447,56.8965517 20,56.4331034 20,55.862069 C20,55.2910345 20.447,54.8275862 21,54.8275862 L23,54.8275862 C23.553,54.8275862 24,55.2910345 24,55.862069 C24,56.4331034 23.553,56.8965517 23,56.8965517 L23,56.8965517 Z M17,56.8965517 L15,56.8965517 C14.447,56.8965517 14,56.4331034 14,55.862069 C14,55.2910345 14.447,54.8275862 15,54.8275862 L17,54.8275862 C17.553,54.8275862 18,55.2910345 18,55.862069 C18,56.4331034 17.553,56.8965517 17,56.8965517 L17,56.8965517 Z M11,56.8965517 L9,56.8965517 C8.447,56.8965517 8,56.4331034 8,55.862069 C8,55.2910345 8.447,54.8275862 9,54.8275862 L11,54.8275862 C11.553,54.8275862 12,55.2910345 12,55.862069 C12,56.4331034 11.553,56.8965517 11,56.8965517 L11,56.8965517 Z M5.091,56.2448276 C4.952,56.2448276 4.81,56.2137931 4.676,56.1496552 C3.982,55.8217241 3.339,55.3924138 2.762,54.8741379 C2.345,54.4996552 2.3,53.8458621 2.662,53.4144828 C3.023,52.9831034 3.658,52.9375862 4.072,53.312069 C4.506,53.7010345 4.988,54.0227586 5.508,54.2689655 C6.01,54.5058621 6.231,55.1203448 6.001,55.6396552 C5.833,56.0193103 5.471,56.2448276 5.091,56.2448276 L5.091,56.2448276 Z M1.282,51.6951724 C0.85,51.6951724 0.45,51.4024138 0.322,50.9513793 C0.108,50.1972414 0,49.4131034 0,48.6206897 C0,48.0496552 0.447,47.5862069 1,47.5862069 C1.553,47.5862069 2,48.0496552 2,48.6206897 C2,49.2155172 2.081,49.8041379 2.242,50.3689655 C2.398,50.9172414 2.094,51.4924138 1.563,51.6527586 C1.47,51.6817241 1.375,51.6951724 1.282,51.6951724 L1.282,51.6951724 Z" id="Fill-232" fill="#00CFF1" sketch:type="MSShapeGroup"></path>
                <path d="M59,45.5172414 L47,45.5172414 C43.686,45.5172414 41,42.7386207 41,39.3103448 C41,35.882069 43.686,33.1034483 47,33.1034483 L59,33.1034483 L59,45.5172414 L59,45.5172414 Z" id="Fill-233" fill-opacity="0.3" fill="#D0E8F9" sketch:type="MSShapeGroup"></path>
                <path d="M59,45.5172414 L47,45.5172414 C43.686,45.5172414 41,42.7386207 41,39.3103448 C41,35.882069 43.686,33.1034483 47,33.1034483 L59,33.1034483 L59,45.5172414 L59,45.5172414 Z" id="Stroke-234" stroke="#00CFF1" stroke-width="2" stroke-linejoin="round" sketch:type="MSShapeGroup"></path>
                <path d="M51,39.3103448 C51,41.0244828 49.657,42.4137931 48,42.4137931 C46.343,42.4137931 45,41.0244828 45,39.3103448 C45,37.5962069 46.343,36.2068966 48,36.2068966 C49.657,36.2068966 51,37.5962069 51,39.3103448 L51,39.3103448 Z" id="Fill-235" fill="#FFFFFF" sketch:type="MSShapeGroup"></path>
                <path d="M51,39.3103448 C51,41.0244828 49.657,42.4137931 48,42.4137931 C46.343,42.4137931 45,41.0244828 45,39.3103448 C45,37.5962069 46.343,36.2068966 48,36.2068966 C49.657,36.2068966 51,37.5962069 51,39.3103448 L51,39.3103448 Z" id="Stroke-236" stroke="#00CFF1" stroke-width="2" stroke-linejoin="round" sketch:type="MSShapeGroup"></path>
                <path d="M55.472,20.6896552 L56,20.1434483 L36.8,0.28137931 C36.746,0.225517241 36.658,0.225517241 36.604,0.28137931 L17.404,20.1434483 L17.933,20.6896552 L55.472,20.6896552 L55.472,20.6896552 Z" id="Fill-237" fill="#FFFFFF" sketch:type="MSShapeGroup"></path>
                <path d="M55.472,20.6896552 L56,20.1434483 L36.8,0.28137931 C36.746,0.225517241 36.658,0.225517241 36.604,0.28137931 L17.404,20.1434483 L17.933,20.6896552 L55.472,20.6896552 L55.472,20.6896552 Z" id="Stroke-238" stroke="#00CFF1" stroke-width="2" stroke-linejoin="round" sketch:type="MSShapeGroup"></path>
                <path d="M17.933,20.6896552 L17.404,20.1434483 L33.851,3.12931034 L31.098,0.28137931 C31.044,0.225517241 30.956,0.225517241 30.902,0.28137931 L11.702,20.1434483 L12.231,20.6896552 L17.933,20.6896552 L17.933,20.6896552 Z" id="Fill-239" fill-opacity="0.3" fill="#00CFF1" sketch:type="MSShapeGroup"></path>
                <path d="M17.933,20.6896552 L17.404,20.1434483 L33.851,3.12931034 L31.098,0.28137931 C31.044,0.225517241 30.956,0.225517241 30.902,0.28137931 L11.702,20.1434483 L12.231,20.6896552 L17.933,20.6896552 L17.933,20.6896552 Z" id="Stroke-240" stroke="#00CFF1" stroke-width="2" stroke-linejoin="round" sketch:type="MSShapeGroup"></path>
                <path d="M55,11.3793103 L53,11.3793103 C52.447,11.3793103 52,10.9158621 52,10.3448276 C52,9.7737931 52.447,9.31034483 53,9.31034483 L55,9.31034483 C55.553,9.31034483 56,9.7737931 56,10.3448276 C56,10.9158621 55.553,11.3793103 55,11.3793103 L55,11.3793103 Z M49,11.3793103 L47,11.3793103 C46.447,11.3793103 46,10.9158621 46,10.3448276 C46,9.7737931 46.447,9.31034483 47,9.31034483 L49,9.31034483 C49.553,9.31034483 50,9.7737931 50,10.3448276 C50,10.9158621 49.553,11.3793103 49,11.3793103 L49,11.3793103 Z" id="Fill-241" fill="#00CFF1" sketch:type="MSShapeGroup"></path>
                <path d="M47.691,20.6896552 L48,20.37 L36.76,8.74137931 C36.728,8.70827586 36.677,8.70827586 36.645,8.74137931 L25.404,20.37 L25.714,20.6896552 L47.691,20.6896552 L47.691,20.6896552 Z" id="Fill-242" fill-opacity="0.3" fill="#00CFF1" sketch:type="MSShapeGroup"></path>
                <path d="M47.691,20.6896552 L48,20.37 L36.76,8.74137931 C36.728,8.70827586 36.677,8.70827586 36.645,8.74137931 L25.404,20.37 L25.714,20.6896552 L47.691,20.6896552 L47.691,20.6896552 Z" id="Stroke-243" stroke="#00CFF1" stroke-width="2" stroke-linejoin="round" sketch:type="MSShapeGroup"></path>
            </g>
        </g>
    </g>
</svg>