<?xml version="1.0" encoding="UTF-8" standalone="no"?>
<svg width="60px" height="60px" viewBox="0 0 60 60" version="1.1" xmlns="http://www.w3.org/2000/svg" xmlns:xlink="http://www.w3.org/1999/xlink">
    <!-- Generator: Sketch 3.6.1 (26313) - http://www.bohemiancoding.com/sketch -->
    <title>Full Wallet</title>
    <desc>Created with Sketch.</desc>
    <defs></defs>
    <g id="Page-1" stroke="none" stroke-width="1" fill="none" fill-rule="evenodd">
        <g id="Icons" transform="translate(-720.000000, -600.000000)">
            <g id="Full-Wallet" transform="translate(720.000000, 601.000000)">
                <path d="M42.528,6 L56,19.472 L55.472,20 L59,20 L59,6 L42.528,6 L42.528,6 Z" id="Fill-185" fill="#FFFFFF"></path>
                <path d="M42.528,6 L56,19.472 L55.472,20 L59,20 L59,6 L42.528,6 L42.528,6 Z" id="Stroke-186" stroke="#0096E6" stroke-width="2" stroke-linejoin="round"></path>
                <path d="M25.174,6 L8,6 C4.134,6 1,9.134 1,13 C1,16.866 4.134,20 8,20 L12.231,20 L11.702,19.472 L25.174,6 L25.174,6 Z" id="Fill-187" fill="#FFFFFF"></path>
                <path d="M25.174,6 L8,6 C4.134,6 1,9.134 1,13 C1,16.866 4.134,20 8,20 L12.231,20 L11.702,19.472 L25.174,6 L25.174,6 Z" id="Stroke-188" stroke="#0096E6" stroke-width="2" stroke-linejoin="round"></path>
                <path d="M1,13 L1,51.848 C1,55.246 3.754,58 7.152,58 L59,58 L59,20 L8,20 C4.134,20 1,16.866 1,13 L1,13 Z" id="Fill-189" fill="#FFFFFF"></path>
                <path d="M1,13 L1,51.848 C1,55.246 3.754,58 7.152,58 L59,58 L59,20 L8,20 C4.134,20 1,16.866 1,13 L1,13 Z" id="Stroke-190" stroke="#0096E6" stroke-width="2" stroke-linejoin="round"></path>
                <path d="M1,18 C0.447,18 0,17.552 0,17 C0,16.235 0.108,15.478 0.321,14.747 C0.477,14.217 1.029,13.913 1.562,14.067 C2.092,14.222 2.396,14.777 2.241,15.308 C2.081,15.856 2,16.425 2,17 C2,17.552 1.553,18 1,18 L1,18 Z M3.416,12.71 C3.137,12.71 2.858,12.593 2.66,12.365 C2.299,11.948 2.344,11.316 2.761,10.955 C3.338,10.454 3.982,10.039 4.676,9.722 C5.179,9.488 5.771,9.712 6.001,10.215 C6.231,10.717 6.01,11.311 5.508,11.54 C4.988,11.778 4.505,12.089 4.071,12.465 C3.882,12.629 3.648,12.71 3.416,12.71 L3.416,12.71 Z M21.01,11 C20.458,11 20.005,10.552 20.005,10 C20.005,9.448 20.447,9 21,9 L21.01,9 C21.563,9 22.01,9.448 22.01,10 C22.01,10.552 21.563,11 21.01,11 L21.01,11 Z M17,11 L15,11 C14.447,11 14,10.552 14,10 C14,9.448 14.447,9 15,9 L17,9 C17.553,9 18,9.448 18,10 C18,10.552 17.553,11 17,11 L17,11 Z M11,11 L9,11 C8.447,11 8,10.552 8,10 C8,9.448 8.447,9 9,9 L11,9 C11.553,9 12,9.448 12,10 C12,10.552 11.553,11 11,11 L11,11 Z" id="Fill-230" fill="#0096E6"></path>
                <path d="M59,25 L57,25 C56.447,25 56,24.552 56,24 C56,23.448 56.447,23 57,23 L59,23 C59.553,23 60,23.448 60,24 C60,24.552 59.553,25 59,25 L59,25 Z M53,25 L51,25 C50.447,25 50,24.552 50,24 C50,23.448 50.447,23 51,23 L53,23 C53.553,23 54,23.448 54,24 C54,24.552 53.553,25 53,25 L53,25 Z M47,25 L45,25 C44.447,25 44,24.552 44,24 C44,23.448 44.447,23 45,23 L47,23 C47.553,23 48,23.448 48,24 C48,24.552 47.553,25 47,25 L47,25 Z M41,25 L39,25 C38.447,25 38,24.552 38,24 C38,23.448 38.447,23 39,23 L41,23 C41.553,23 42,23.448 42,24 C42,24.552 41.553,25 41,25 L41,25 Z M35,25 L33,25 C32.447,25 32,24.552 32,24 C32,23.448 32.447,23 33,23 L35,23 C35.553,23 36,23.448 36,24 C36,24.552 35.553,25 35,25 L35,25 Z M29,25 L27,25 C26.447,25 26,24.552 26,24 C26,23.448 26.447,23 27,23 L29,23 C29.553,23 30,23.448 30,24 C30,24.552 29.553,25 29,25 L29,25 Z M23,25 L21,25 C20.447,25 20,24.552 20,24 C20,23.448 20.447,23 21,23 L23,23 C23.553,23 24,23.448 24,24 C24,24.552 23.553,25 23,25 L23,25 Z M17,25 L15,25 C14.447,25 14,24.552 14,24 C14,23.448 14.447,23 15,23 L17,23 C17.553,23 18,23.448 18,24 C18,24.552 17.553,25 17,25 L17,25 Z M11,25 L9,25 C8.447,25 8,24.552 8,24 C8,23.448 8.447,23 9,23 L11,23 C11.553,23 12,23.448 12,24 C12,24.552 11.553,25 11,25 L11,25 Z M5.091,24.37 C4.952,24.37 4.81,24.34 4.676,24.278 C3.982,23.961 3.339,23.546 2.762,23.045 C2.345,22.683 2.3,22.051 2.662,21.634 C3.023,21.217 3.658,21.172 4.072,21.535 C4.506,21.911 4.988,22.222 5.508,22.46 C6.01,22.689 6.231,23.283 6.001,23.785 C5.833,24.152 5.471,24.37 5.091,24.37 L5.091,24.37 Z M1.282,19.972 C0.85,19.972 0.45,19.689 0.322,19.253 C0.108,18.524 0,17.766 0,17 C0,16.448 0.447,16 1,16 C1.553,16 2,16.448 2,17 C2,17.575 2.081,18.144 2.242,18.69 C2.398,19.22 2.094,19.776 1.563,19.931 C1.47,19.959 1.375,19.972 1.282,19.972 L1.282,19.972 Z" id="Fill-231" fill="#0096E6"></path>
                <path d="M59,55 L57,55 C56.447,55 56,54.552 56,54 C56,53.448 56.447,53 57,53 L59,53 C59.553,53 60,53.448 60,54 C60,54.552 59.553,55 59,55 L59,55 Z M53,55 L51,55 C50.447,55 50,54.552 50,54 C50,53.448 50.447,53 51,53 L53,53 C53.553,53 54,53.448 54,54 C54,54.552 53.553,55 53,55 L53,55 Z M47,55 L45,55 C44.447,55 44,54.552 44,54 C44,53.448 44.447,53 45,53 L47,53 C47.553,53 48,53.448 48,54 C48,54.552 47.553,55 47,55 L47,55 Z M41,55 L39,55 C38.447,55 38,54.552 38,54 C38,53.448 38.447,53 39,53 L41,53 C41.553,53 42,53.448 42,54 C42,54.552 41.553,55 41,55 L41,55 Z M35,55 L33,55 C32.447,55 32,54.552 32,54 C32,53.448 32.447,53 33,53 L35,53 C35.553,53 36,53.448 36,54 C36,54.552 35.553,55 35,55 L35,55 Z M29,55 L27,55 C26.447,55 26,54.552 26,54 C26,53.448 26.447,53 27,53 L29,53 C29.553,53 30,53.448 30,54 C30,54.552 29.553,55 29,55 L29,55 Z M23,55 L21,55 C20.447,55 20,54.552 20,54 C20,53.448 20.447,53 21,53 L23,53 C23.553,53 24,53.448 24,54 C24,54.552 23.553,55 23,55 L23,55 Z M17,55 L15,55 C14.447,55 14,54.552 14,54 C14,53.448 14.447,53 15,53 L17,53 C17.553,53 18,53.448 18,54 C18,54.552 17.553,55 17,55 L17,55 Z M11,55 L9,55 C8.447,55 8,54.552 8,54 C8,53.448 8.447,53 9,53 L11,53 C11.553,53 12,53.448 12,54 C12,54.552 11.553,55 11,55 L11,55 Z M5.091,54.37 C4.952,54.37 4.81,54.34 4.676,54.278 C3.982,53.961 3.339,53.546 2.762,53.045 C2.345,52.683 2.3,52.051 2.662,51.634 C3.023,51.217 3.658,51.173 4.072,51.535 C4.506,51.911 4.988,52.222 5.508,52.46 C6.01,52.689 6.231,53.283 6.001,53.785 C5.833,54.152 5.471,54.37 5.091,54.37 L5.091,54.37 Z M1.282,49.972 C0.85,49.972 0.45,49.689 0.322,49.253 C0.108,48.524 0,47.766 0,47 C0,46.448 0.447,46 1,46 C1.553,46 2,46.448 2,47 C2,47.575 2.081,48.144 2.242,48.69 C2.398,49.22 2.094,49.776 1.563,49.931 C1.47,49.959 1.375,49.972 1.282,49.972 L1.282,49.972 Z" id="Fill-232" fill="#0096E6"></path>
                <path d="M59,44 L47,44 C43.686,44 41,41.314 41,38 C41,34.686 43.686,32 47,32 L59,32 L59,44 L59,44 Z" id="Fill-233" fill="#D0E8F9"></path>
                <path d="M59,44 L47,44 C43.686,44 41,41.314 41,38 C41,34.686 43.686,32 47,32 L59,32 L59,44 L59,44 Z" id="Stroke-234" stroke="#0096E6" stroke-width="2" stroke-linejoin="round"></path>
                <path d="M51,38 C51,39.657 49.657,41 48,41 C46.343,41 45,39.657 45,38 C45,36.343 46.343,35 48,35 C49.657,35 51,36.343 51,38 L51,38 Z" id="Fill-235" fill="#FFFFFF"></path>
                <path d="M51,38 C51,39.657 49.657,41 48,41 C46.343,41 45,39.657 45,38 C45,36.343 46.343,35 48,35 C49.657,35 51,36.343 51,38 L51,38 Z" id="Stroke-236" stroke="#0096E6" stroke-width="2" stroke-linejoin="round"></path>
                <path d="M55.472,20 L56,19.472 L36.8,0.272 C36.746,0.218 36.658,0.218 36.604,0.272 L17.404,19.472 L17.933,20 L55.472,20 L55.472,20 Z" id="Fill-237" fill="#FFFFFF"></path>
                <path d="M55.472,20 L56,19.472 L36.8,0.272 C36.746,0.218 36.658,0.218 36.604,0.272 L17.404,19.472 L17.933,20 L55.472,20 L55.472,20 Z" id="Stroke-238" stroke="#0096E6" stroke-width="2" stroke-linejoin="round"></path>
                <path d="M17.933,20 L17.404,19.472 L33.851,3.025 L31.098,0.272 C31.044,0.218 30.956,0.218 30.902,0.272 L11.702,19.472 L12.231,20 L17.933,20 L17.933,20 Z" id="Fill-239" fill="#D0E8F9"></path>
                <path d="M17.933,20 L17.404,19.472 L33.851,3.025 L31.098,0.272 C31.044,0.218 30.956,0.218 30.902,0.272 L11.702,19.472 L12.231,20 L17.933,20 L17.933,20 Z" id="Stroke-240" stroke="#0096E6" stroke-width="2" stroke-linejoin="round"></path>
                <path d="M55,11 L53,11 C52.447,11 52,10.552 52,10 C52,9.448 52.447,9 53,9 L55,9 C55.553,9 56,9.448 56,10 C56,10.552 55.553,11 55,11 L55,11 Z M49,11 L47,11 C46.447,11 46,10.552 46,10 C46,9.448 46.447,9 47,9 L49,9 C49.553,9 50,9.448 50,10 C50,10.552 49.553,11 49,11 L49,11 Z" id="Fill-241" fill="#0096E6"></path>
                <path d="M47.691,20 L48,19.691 L36.76,8.45 C36.728,8.418 36.677,8.418 36.645,8.45 L25.404,19.691 L25.714,20 L47.691,20 L47.691,20 Z" id="Fill-242" fill="#D0E8F9"></path>
                <path d="M47.691,20 L48,19.691 L36.76,8.45 C36.728,8.418 36.677,8.418 36.645,8.45 L25.404,19.691 L25.714,20 L47.691,20 L47.691,20 Z" id="Stroke-243" stroke="#0096E6" stroke-width="2" stroke-linejoin="round"></path>
            </g>
        </g>
    </g>
</svg>