<?xml version="1.0" encoding="UTF-8" standalone="no"?>
<svg width="650px" height="157px" viewBox="0 0 650 157" version="1.1" xmlns="http://www.w3.org/2000/svg" xmlns:xlink="http://www.w3.org/1999/xlink">
    <!-- Generator: Sketch 3.8.3 (29802) - http://www.bohemiancoding.com/sketch -->
    <title>Group</title>
    <desc>Created with Sketch.</desc>
    <defs>
        <linearGradient x1="0%" y1="100%" x2="100%" y2="-42.2119696%" id="linearGradient-1">
            <stop stop-color="#3399FF" offset="0%"></stop>
            <stop stop-color="#00CCFF" offset="100%"></stop>
        </linearGradient>
    </defs>
    <g id="Pages" stroke="none" stroke-width="1" fill="none" fill-rule="evenodd">
        <g id="logo-w/social">
            <g id="Group">
                <g id="So-sure-brand-identity-">
                    <g id="Page-1">
                        <polygon id="Fill-1" fill="#3399FF" points="197.861713 40.2908369 191.440827 58.7077635 215.968761 58.7077635 222.953694 40.2908369"></polygon>
                        <g id="Group-10" transform="translate(0.000000, 0.542458)">
                            <path d="M571.678082,54.7667786 L571.678082,51.4200669 C571.678082,20.596277 553.549773,1.22189551 522.220753,1.22189551 C492.827753,1.22189551 472.235645,19.3647272 472.235645,49.4826288 C472.235645,80.6581113 494.588682,97.56689 524.509459,97.56689 C545.100317,97.56689 565.342241,87.8796992 570.446183,66.5678796 L539.644941,66.5678796 C536.125585,72.5554145 531.197986,74.8457968 524.333116,74.8457968 C511.132406,74.8457968 504.268786,67.800681 504.268786,54.7667786 L571.678082,54.7667786 Z M541.933647,36.2735059 L504.796565,36.2735059 C506.732585,26.9380077 514.476669,22.0068021 523.805338,22.0068021 C532.428635,22.0068021 540.349062,27.6426445 541.933647,36.2735059 L541.933647,36.2735059 Z M466.850305,31.0594443 L477.573459,3.4434412 C476.215243,2.98411316 469.349123,2.98411316 469.349123,2.98411316 C456.852533,2.98411316 446.291964,7.91531879 440.132466,19.011783 L439.781031,19.011783 L439.781031,4.21691457 L407.747889,4.21691457 L407.747889,94.5731225 L439.781031,94.5731225 L439.781031,58.1134902 C439.781031,42.613985 444.1796,30.812884 461.956474,30.812884 C463.659873,30.812884 465.104384,30.8992427 466.850305,31.0594443 L466.850305,31.0594443 Z M384.610689,88.4153733 C393.796783,79.4703666 394.544677,68.2412354 394.544677,55.5552708 L394.544677,4.18437362 L367.392859,4.18437362 L367.392859,52.3650061 C367.392859,64.5152965 366.362316,74.5729535 353.698138,74.5729535 C341.036461,74.5729535 340.005918,64.5152965 340.005918,52.3650061 L340.005918,4.18437362 L312.8541,4.18437362 L312.8541,55.5552708 C312.8541,68.2399838 313.600744,79.469115 322.778083,88.4078639 C332.056726,97.5443616 346.132899,98.9085784 353.698138,98.9085784 C361.264628,98.9085784 375.343302,97.5443616 384.610689,88.4153733 L384.610689,88.4153733 Z M263.065346,28.3760674 C263.065346,23.7364788 269.484981,22.130708 273.228205,22.130708 C278.754869,22.130708 285.708536,23.915454 290.701169,26.5913214 L299.110603,4.84270208 C290.233422,1.62740582 280.893497,0.00536458042 271.444765,0.00536458042 C251.475484,0.00536458042 231.149766,9.99793964 231.149766,32.479982 C231.149766,48.8956401 241.313876,53.890676 251.475484,56.567795 C261.638343,59.2436625 271.801202,59.6003613 271.801202,66.7380938 C271.801202,71.7331297 265.740507,73.6968509 261.638343,73.6968509 C253.615363,73.6968509 242.560784,69.0572623 235.963555,64.4176736 C235.963555,64.4176736 226.070838,88.1900898 226.139624,88.2288886 C236.742716,94.2815055 248.844097,97.6056888 261.104312,97.6056888 C282.32175,97.6056888 304.252064,87.6143653 304.252064,63.5253006 C304.252064,46.57522 292.841047,39.4374876 277.685555,36.4049213 C273.228205,35.5125483 263.065346,34.6214268 263.065346,28.3760674 L263.065346,28.3760674 Z" id="Fill-2" fill="url(#linearGradient-1)"></path>
                            <path d="M184.282678,49.8569749 C184.282678,22.7466081 162.321097,0.768950508 135.230562,0.768950508 C108.140026,0.768950508 86.1784458,22.7466081 86.1784458,49.8569749 C86.1784458,76.9673417 108.140026,98.9449992 135.230562,98.9449992 C162.321097,98.9449992 184.282678,76.9673417 184.282678,49.8569749 Z" id="Fill-4" fill="#3399FF"></path>
                            <path d="M0.195980909,88.2285132 C10.7990721,94.28113 22.9004533,97.6065649 35.1606683,97.6065649 C56.3781066,97.6065649 78.3084208,87.6139898 78.3084208,63.5261768 C78.3084208,46.5748445 66.8974036,39.4383637 51.7419119,36.4045458 C47.2845614,35.5121728 37.1217024,34.6210514 37.1217024,28.375692 C37.1217024,23.7373549 43.5413376,22.1303325 47.2845614,22.1303325 C52.8112257,22.1303325 59.7648925,23.9150785 64.7587759,26.590946 L73.1669596,4.84357819 C64.2910292,1.62703035 54.9498535,0.00624068294 45.5023717,0.00624068294 C25.5318409,0.00624068294 5.20737349,9.99756417 5.20737349,32.4796065 C5.20737349,48.8952646 15.3702325,53.8903006 25.5318409,56.5674196 C35.6946999,59.2445386 45.857559,59.6012374 45.857559,66.7377183 C45.857559,71.7327542 39.7968631,73.6964755 35.6946999,73.6964755 C27.6717193,73.6964755 16.6183907,69.0581384 10.0211619,64.4172982 C10.0211619,64.4172982 0.128445296,88.1897144 0.195980909,88.2285132" id="Fill-6" fill="#3399FF"></path>
                            <path d="M135.230687,82.9526238 C118.933343,82.9526238 105.6726,68.4018125 105.6726,50.5155537 L115.04004,50.5155537 C115.04004,63.0175367 124.286166,73.5795784 135.230687,73.5795784 C146.175208,73.5795784 155.421334,63.0175367 155.421334,50.5155537 L164.787523,50.5155537 C164.787523,68.4018125 151.528031,82.9526238 135.230687,82.9526238" id="Fill-8" fill="#FFFFFF"></path>
                        </g>
                    </g>
                </g>
                <text id="social-insurance" font-family="Avenir-Medium, Avenir" font-size="48" font-weight="400" fill="#2E414D">
                    <tspan x="312.176" y="156">social insurance</tspan>
                </text>
            </g>
        </g>
    </g>
</svg>