<?xml version="1.0" encoding="UTF-8"?>
<svg width="100px" height="100px" viewBox="0 0 125 125" version="1.1" xmlns="http://www.w3.org/2000/svg" xmlns:xlink="http://www.w3.org/1999/xlink">
    <!-- Generator: Sketch 41.2 (35397) - http://www.bohemiancoding.com/sketch -->
    <title>Group 2</title>
    <desc>Created with Sketch.</desc>
    <defs>
        <linearGradient x1="0%" y1="100%" x2="100%" y2="-42.2119696%" id="linearGradient-1">
            <stop stop-color="#3399FF" offset="0%"></stop>
            <stop stop-color="#00CCFF" offset="100%"></stop>
        </linearGradient>
    </defs>
    <g id="Page-1" stroke="none" stroke-width="1" fill="none" fill-rule="evenodd">
        <g id="full-logo-dark" transform="translate(0, 0.000000)">
            <g id="Group-2" transform="translate(-104, 1.500000)">
                <g id="Group">
                    <g id="So-sure-brand-identity-">
                        <g id="Page-1">
                            
                            <g id="Group-10">
                                <path d="M226.116964,61.1750812 C226.116964,27.9103496 199.169852,0.943511112 165.929454,0.943511112 C132.689055,0.943511112 105.741944,27.9103496 105.741944,61.1750812 C105.741944,94.4398129 132.689055,121.406651 165.929454,121.406651 C199.169852,121.406651 226.116964,94.4398129 226.116964,61.1750812 Z" id="Fill-4" fill="#3399FF"></path>
                            
                                <path d="M165.929607,101.783823 C145.932579,101.783823 129.661495,83.9298101 129.661495,61.983165 L141.155451,61.983165 C141.155451,77.3232418 152.500554,90.2829884 165.929607,90.2829884 C179.35866,90.2829884 190.703763,77.3232418 190.703763,61.983165 L202.196184,61.983165 C202.196184,83.9298101 185.926635,101.783823 165.929607,101.783823" id="Fill-8" fill="#FFFFFF"></path>
                            </g>
                        </g>
                    </g>
                  
                </g>
            </g>
        </g>
    </g>
</svg>