<?xml version="1.0" encoding="UTF-8" standalone="no"?>
<svg width="264px" height="46px" viewBox="0 0 264 46" version="1.1" xmlns="http://www.w3.org/2000/svg" xmlns:xlink="http://www.w3.org/1999/xlink">
    <!-- Generator: Sketch 3.7 (28169) - http://www.bohemiancoding.com/sketch -->
    <title>So sure brand identity </title>
    <desc>Created with Sketch.</desc>
    <defs></defs>
    <g id="Pages" stroke="none" stroke-width="1" fill="none" fill-rule="evenodd">
        <g id="mailchimp-banner-welcome-copy" transform="translate(-148.000000, -77.000000)">
            <g id="So-sure-brand-identity-" transform="translate(148.000000, 77.000000)">
                <g id="Page-1">
                    <polygon id="Fill-1" fill="#3399FF" points="91.3267593 18.5793972 88.3630799 27.0720328 99.6844047 27.0720328 102.908431 18.5793972"></polygon>
                    <g id="Group-10" transform="translate(0.000000, 0.250145)">
                        <path d="M263.868668,25.2547183 L263.868668,23.7114422 C263.868668,9.49760397 255.501209,0.563455214 241.040716,0.563455214 C227.47383,0.563455214 217.969158,8.92969684 217.969158,22.8180273 C217.969158,37.1940423 228.286619,44.9912225 242.097111,44.9912225 C251.601205,44.9912225 260.944242,40.5241481 263.300062,30.6965845 L249.083175,30.6965845 C247.45875,33.4576289 245.184325,34.5137976 242.015717,34.5137976 C235.922683,34.5137976 232.754652,31.2650687 232.754652,25.2547183 L263.868668,25.2547183 Z M250.13957,16.7268771 L232.998257,16.7268771 C233.891864,12.4219794 237.46629,10.1480423 241.772111,10.1480423 C245.752354,10.1480423 249.408175,12.74691 250.13957,16.7268771 L250.13957,16.7268771 Z M215.483454,14.322506 L220.432926,1.58788119 C219.806016,1.37607029 216.63683,1.37607029 216.63683,1.37607029 C210.868797,1.37607029 205.994369,3.65000738 203.151338,8.76694297 L202.989127,8.76694297 L202.989127,1.94455457 L188.203634,1.94455457 L188.203634,43.6107003 L202.989127,43.6107003 L202.989127,26.7979944 C202.989127,19.6506753 205.019368,14.2088092 213.224616,14.2088092 C214.010851,14.2088092 214.677592,14.2486319 215.483454,14.322506 L215.483454,14.322506 Z M177.524228,40.7711646 C181.76424,36.6463351 182.109445,31.4682225 182.109445,25.6183173 L182.109445,1.92954889 L169.577018,1.92954889 L169.577018,24.1471839 C169.577018,29.7500726 169.101351,34.3879808 163.255964,34.3879808 C157.411731,34.3879808 156.936065,29.7500726 156.936065,24.1471839 L156.936065,1.92954889 L144.403638,1.92954889 L144.403638,25.6183173 C144.403638,31.4676454 144.748265,36.6457579 148.984237,40.7677018 C153.266967,44.9808339 159.764087,45.609918 163.255964,45.609918 C166.748418,45.609918 173.246693,44.9808339 177.524228,40.7711646 L177.524228,40.7711646 Z M121.422711,13.0851149 C121.422711,10.9456517 124.385813,10.2051793 126.113568,10.2051793 C128.664502,10.2051793 131.874097,11.0281829 134.178539,12.2621112 L138.060071,2.23312526 C133.962642,0.750449025 129.651626,0.0024737801 125.290387,0.0024737801 C116.073194,0.0024737801 106.69148,4.61037066 106.69148,14.9775615 C106.69148,22.547348 111.382915,24.8507193 116.073194,26.0852247 C120.764051,27.319153 125.454908,27.4836383 125.454908,30.7750757 C125.454908,33.078447 122.657481,33.9839818 120.764051,33.9839818 C117.060895,33.9839818 111.958448,31.8445187 108.913374,29.7050555 C108.913374,29.7050555 104.347206,40.6672792 104.378956,40.6851705 C109.27301,43.4762263 114.858628,45.0091139 120.517559,45.0091139 C130.310863,45.0091139 140.433208,40.4017941 140.433208,29.2935537 C140.433208,21.4773279 135.16624,18.1858905 128.170941,16.7874769 C126.113568,16.3759751 121.422711,15.9650504 121.422711,13.0851149 L121.422711,13.0851149 Z" id="Fill-2" fill="#3399FF"></path>
                        <path d="M85.0591026,22.9906503 C85.0591026,10.4891906 74.9223259,0.354587744 62.4181848,0.354587744 C49.9140436,0.354587744 39.7772669,10.4891906 39.7772669,22.9906503 C39.7772669,35.49211 49.9140436,45.6267129 62.4181848,45.6267129 C74.9223259,45.6267129 85.0591026,35.49211 85.0591026,22.9906503 Z" id="Fill-4" fill="#3399FF"></path>
                        <path d="M0.0904586391,40.6849974 C4.98451288,43.4760532 10.5701308,45.0095179 16.2290614,45.0095179 C26.0223653,45.0095179 36.1447103,40.401621 36.1447103,29.2939577 C36.1447103,21.4771547 30.8777428,18.1862945 23.8824432,16.7873038 C21.8250701,16.3758019 17.1342132,15.9648773 17.1342132,13.0849417 C17.1342132,10.9460557 20.0973154,10.2050062 21.8250701,10.2050062 C24.376005,10.2050062 27.5855994,11.0280098 29.8906193,12.2619381 L33.7715731,2.23352926 C29.6747221,0.750275882 25.3631284,0.00287777908 21.0024672,0.00287777908 C11.7846968,0.00287777908 2.40356024,4.61019752 2.40356024,14.9773883 C2.40356024,22.5471749 7.09441713,24.8505462 11.7846968,26.0850516 C16.4755537,27.319557 21.1664105,27.4840423 21.1664105,30.7749025 C21.1664105,33.0782738 18.3689835,33.9838087 16.4755537,33.9838087 C12.7723975,33.9838087 7.67052778,31.8449227 4.62545393,29.7048824 C4.62545393,29.7048824 0.0592863192,40.667106 0.0904586391,40.6849974" id="Fill-6" fill="#3399FF"></path>
                        <path d="M62.4182425,38.2521156 C54.8958999,38.2521156 48.7751571,31.5422697 48.7751571,23.2943421 L53.0988733,23.2943421 C53.0988733,29.0594075 57.3665948,33.9299037 62.4182425,33.9299037 C67.4698901,33.9299037 71.7376116,29.0594075 71.7376116,23.2943421 L76.0607506,23.2943421 C76.0607506,31.5422697 69.9405851,38.2521156 62.4182425,38.2521156" id="Fill-8" fill="#FFFFFF"></path>
                    </g>
                </g>
            </g>
        </g>
    </g>
</svg>