<?xml version="1.0" encoding="UTF-8"?>
<svg width="746px" height="130px" viewBox="0 0 746 130" version="1.1" xmlns="http://www.w3.org/2000/svg" xmlns:xlink="http://www.w3.org/1999/xlink">
    <!-- Generator: Sketch 42 (36781) - http://www.bohemiancoding.com/sketch -->
    <title>So sure brand identity </title>
    <desc>Created with Sketch.</desc>
    <defs>
        <linearGradient x1="100%" y1="0%" x2="50%" y2="100%" id="linearGradient-1">
            <stop stop-color="#00CCFF" offset="0%"></stop>
            <stop stop-color="#3399FF" offset="100%"></stop>
        </linearGradient>
    </defs>
    <g id="Page-1" stroke="none" stroke-width="1" fill="none" fill-rule="evenodd">
        <g id="So-sure-brand-identity-">
            <g id="Page-1">
                <polygon id="Fill-1" fill="#FFFFFF" points="257.948552 52.5263978 249.577766 76.5361948 281.554367 76.5361948 290.660491 52.5263978"></polygon>
                <g id="Group-10" transform="translate(0.000000, 0.707192)">
                    <path d="M745.285843,71.3984076 L745.285843,67.0353633 C745.285843,26.8509746 721.652311,1.59296194 680.809263,1.59296194 C642.490169,1.59296194 615.644629,25.2454266 615.644629,64.5095621 C615.644629,105.152446 644.785858,127.196099 683.793007,127.196099 C710.636917,127.196099 737.025928,114.567093 743.679839,86.7832786 L703.524846,86.7832786 C698.936729,94.589114 692.512712,97.5750419 683.563112,97.5750419 C666.353596,97.5750419 657.405626,88.3904583 657.405626,71.3984076 L745.285843,71.3984076 Z M706.508589,47.2890798 L658.093681,47.2890798 C660.617634,35.1185683 670.713449,28.6898493 682.875057,28.6898493 C694.117086,28.6898493 704.442795,36.0371899 706.508589,47.2890798 L706.508589,47.2890798 Z M608.623864,40.4916068 L622.603436,4.4891488 C620.832756,3.89033157 611.881525,3.89033157 611.881525,3.89033157 C595.589959,3.89033157 581.822346,10.3190506 573.792326,24.7853 L573.334166,24.7853 L573.334166,5.49751132 L531.573169,5.49751132 L531.573169,123.293181 L573.334166,123.293181 L573.334166,75.761452 C573.334166,55.5550418 579.068497,40.1701709 602.24387,40.1701709 C604.464558,40.1701709 606.34774,40.282755 608.623864,40.4916068 L608.623864,40.4916068 Z M501.40964,115.265441 C513.385376,103.604005 514.360392,88.9648007 514.360392,72.42635 L514.360392,5.4550883 L478.963084,5.4550883 L478.963084,68.2672625 C478.963084,84.1073651 477.619584,97.2193412 461.109536,97.2193412 C444.602749,97.2193412 443.259249,84.1073651 443.259249,68.2672625 L443.259249,5.4550883 L407.861941,5.4550883 L407.861941,72.42635 C407.861941,88.9631691 408.835326,103.602374 420.799649,115.255651 C432.896039,127.166729 451.246877,128.945233 461.109536,128.945233 C470.973825,128.945233 489.327924,127.166729 501.40964,115.265441 L501.40964,115.265441 Z M342.953288,36.9933394 C342.953288,30.944796 351.322445,28.8513831 356.202414,28.8513831 C363.407422,28.8513831 372.472785,31.1781226 378.981585,34.6666 L389.944805,6.3133386 C378.371793,2.12161802 366.19551,0.00699370147 353.877377,0.00699370147 C327.843806,0.00699370147 301.345554,13.0341238 301.345554,42.3435348 C301.345554,63.7443161 314.596311,70.2562494 327.843806,73.7463586 C341.092932,77.234836 354.342058,77.6998576 354.342058,87.0051836 C354.342058,93.517117 346.440844,96.077183 341.092932,96.077183 C330.633525,96.077183 316.22188,90.0286395 307.621199,83.980096 C307.621199,83.980096 294.724252,114.971743 294.813928,115.022324 C308.636976,122.913006 324.413316,127.24668 340.396726,127.24668 C368.057496,127.24668 396.64763,114.221182 396.64763,82.8167263 C396.64763,60.7192285 381.771304,51.4139025 362.013377,47.4604035 C356.202414,46.2970338 342.953288,45.1352957 342.953288,36.9933394 L342.953288,36.9933394 Z" id="Fill-2" fill="#FFFFFF"></path>
                    <path d="M240.245822,64.9975899 C240.245822,29.6543204 211.614927,1.00246615 176.297511,1.00246615 C140.980096,1.00246615 112.349201,29.6543204 112.349201,64.9975899 C112.349201,100.34086 140.980096,128.992714 176.297511,128.992714 C211.614927,128.992714 240.245822,100.34086 240.245822,64.9975899 Z" id="Fill-4" fill="#FFFFFF"></path>
                    <path d="M0.255496584,115.021835 C14.0785449,122.912516 29.8548855,127.247822 45.8382946,127.247822 C73.4990654,127.247822 102.089199,114.220692 102.089199,82.8178685 C102.089199,60.718739 87.2128728,51.4150447 67.4549465,47.459914 C61.6439835,46.2965443 48.3948574,45.1348062 48.3948574,36.9928499 C48.3948574,30.9459381 56.7640137,28.8508936 61.6439835,28.8508936 C68.8489906,28.8508936 77.9143537,31.1776331 84.4247845,34.6661105 L95.3863737,6.31448076 C83.8149921,2.12112852 71.6370789,0.00813585966 59.3205766,0.00813585966 C33.2853754,0.00813585966 6.78875379,13.0336343 6.78875379,42.3430453 C6.78875379,63.7438266 20.0378798,70.25576 33.2853754,73.7458691 C46.5345014,77.2359782 59.7836275,77.7009997 59.7836275,87.0046941 C59.7836275,93.5166275 51.8824135,96.0766935 46.5345014,96.0766935 C36.0750942,96.0766935 21.6650799,90.0297817 13.0643982,83.9796065 C13.0643982,83.9796065 0.16745169,114.971253 0.255496584,115.021835" id="Fill-6" fill="#FFFFFF"></path>
                    <path d="M176.297674,108.143758 C155.051137,108.143758 137.763359,89.174142 137.763359,65.8561666 L149.975512,65.8561666 C149.975512,82.154764 162.02951,95.9242969 176.297674,95.9242969 C190.565839,95.9242969 202.619837,82.154764 202.619837,65.8561666 L214.830359,65.8561666 C214.830359,89.174142 197.544212,108.143758 176.297674,108.143758" id="Fill-8" fill="url(#linearGradient-1)"></path>
                </g>
            </g>
        </g>
    </g>
</svg>