<?xml version="1.0" encoding="UTF-8" standalone="no"?>
<svg width="750px" height="180px" viewBox="0 0 750 180" version="1.1" xmlns="http://www.w3.org/2000/svg" xmlns:xlink="http://www.w3.org/1999/xlink" xmlns:sketch="http://www.bohemiancoding.com/sketch/ns">
    <!-- Generator: Sketch 3.5.2 (25235) - http://www.bohemiancoding.com/sketch -->
    <title>Logo</title>
    <desc>Created with Sketch.</desc>
    <defs></defs>
    <g id="Pages" stroke="none" stroke-width="1" fill="none" fill-rule="evenodd" sketch:type="MSPage">
        <g id="Logo" sketch:type="MSArtboardGroup">
            <g id="So-sure-brand-identity-" sketch:type="MSLayerGroup" transform="translate(15.000000, 27.000000)">
                <g id="Page-1" sketch:type="MSShapeGroup">
                    <path d="M249.07298,50.8939611 L240.990218,74.0958779 L271.866558,74.0958779 L280.659357,50.8939611 L249.07298,50.8939611 Z" id="Fill-1" fill="#66CCCC"></path>
                    <g id="Group-10" transform="translate(0.000000, 0.683397)">
                        <path d="M719.641821,69.1309667 L719.641821,64.9147299 C719.641821,26.082463 696.821479,1.67433035 657.383771,1.67433035 C620.383172,1.67433035 594.461341,24.5309383 594.461341,62.4739166 C594.461341,101.749251 622.59987,123.051181 660.264849,123.051181 C686.185105,123.051181 711.666115,110.847114 718.091077,83.9981685 L679.317749,83.9981685 C674.887501,91.5413536 668.684524,94.4268112 660.042864,94.4268112 C643.425499,94.4268112 634.785413,85.5512699 634.785413,69.1309667 L719.641821,69.1309667 Z M682.198827,45.832868 L635.449793,45.832868 C637.886902,34.0718692 647.635336,27.8594634 659.378484,27.8594634 C670.233694,27.8594634 680.204113,34.959581 682.198827,45.832868 L682.198827,45.832868 Z M587.682148,39.264116 L601.180708,4.47306649 C599.470953,3.89439823 590.827719,3.89439823 590.827719,3.89439823 C575.096718,3.89439823 561.802825,10.1068041 554.049104,24.086294 L553.606709,24.086294 L553.606709,5.44749969 L513.282637,5.44749969 L513.282637,119.279588 L553.606709,119.279588 L553.606709,73.3472036 C553.606709,53.8206975 559.143732,38.9534957 581.521679,38.9534957 C583.665957,38.9534957 585.484342,39.0622917 587.682148,39.264116 L587.682148,39.264116 Z M484.156985,111.521965 C495.720656,100.252913 496.662123,86.1062869 496.662123,70.124321 L496.662123,5.40650412 L462.482776,5.40650412 L462.482776,66.1051782 C462.482776,81.4122939 461.185504,94.0830791 445.243538,94.0830791 C429.304722,94.0830791 428.00745,81.4122939 428.00745,66.1051782 L428.00745,5.40650412 L393.828103,5.40650412 L393.828103,70.124321 C393.828103,86.1047101 394.767995,100.251336 406.320646,111.512504 C418.00082,123.022799 435.720237,124.74146 445.243538,124.74146 C454.768414,124.74146 472.49098,123.022799 484.156985,111.521965 L484.156985,111.521965 Z M331.152847,35.8835581 C331.152847,30.0385357 339.234035,28.0155619 343.946093,28.0155619 C350.903188,28.0155619 359.656628,30.2640113 365.941471,33.6351087 L376.527465,6.23587607 C365.352661,2.18519824 353.595343,0.14172667 341.701057,0.14172667 C316.563257,0.14172667 290.976765,12.7305207 290.976765,41.0537304 C290.976765,61.7344195 303.771585,68.0272398 316.563257,71.3999139 C329.356503,74.7710113 342.149749,75.2203859 342.149749,84.2126068 C342.149749,90.5054271 334.520402,92.9793521 329.356503,92.9793521 C319.256986,92.9793521 305.341222,87.1343297 297.036475,81.2893072 C297.036475,81.2893072 284.58329,111.238149 284.66988,111.287028 C298.017301,118.912205 313.250804,123.10006 328.684251,123.10006 C355.393262,123.10006 382.999657,110.512843 382.999657,80.1650825 C382.999657,58.8111199 368.635201,49.818899 349.557111,45.9984271 C343.946093,44.8742023 331.152847,43.7515544 331.152847,35.8835581 L331.152847,35.8835581 Z" id="Fill-2" fill="#FFFFFF"></path>
                        <path d="M231.979371,62.9455233 C231.979371,28.7914819 204.333616,1.10370353 170.231413,1.10370353 C136.12921,1.10370353 108.483455,28.7914819 108.483455,62.9455233 C108.483455,97.0995648 136.12921,124.787343 170.231413,124.787343 C204.333616,124.787343 231.979371,97.0995648 231.979371,62.9455233 Z" id="Fill-4" fill="#66CCCC"></path>
                        <path d="M0.246705379,111.286555 C13.594126,118.911732 28.8276295,123.101164 44.2610766,123.101164 C70.9700871,123.101164 98.5764826,110.51237 98.5764826,80.1661862 C98.5764826,58.8106469 84.2120257,49.8200027 65.1339361,45.997954 C59.5229185,44.8737293 46.7296724,43.7510813 46.7296724,35.8830851 C46.7296724,30.0396394 54.8108602,28.0150889 59.5229185,28.0150889 C66.4800136,28.0150889 75.2334529,30.2635383 81.5198708,33.6346357 L92.1042903,6.2369798 C80.9310603,2.18472522 69.1721685,0.142830397 57.2794561,0.142830397 C32.1400821,0.142830397 6.55516428,12.7300476 6.55516428,41.0532574 C6.55516428,61.7339465 19.3484104,68.0267668 32.1400821,71.3994409 C44.9333281,74.7721151 57.7265742,75.2214896 57.7265742,84.2121338 C57.7265742,90.504954 50.0972276,92.9788791 44.9333281,92.9788791 C34.8338113,92.9788791 20.9196212,87.1354334 12.6148744,81.2888342 C12.6148744,81.2888342 0.161689961,111.237676 0.246705379,111.286555" id="Fill-6" fill="#66CCCC"></path>
                        <path d="M170.23157,104.639912 C149.716091,104.639912 133.023156,86.3085843 133.023156,63.7752106 L144.815109,63.7752106 C144.815109,79.5253939 156.45435,92.8316104 170.23157,92.8316104 C184.008791,92.8316104 195.648032,79.5253939 195.648032,63.7752106 L207.438411,63.7752106 C207.438411,86.3085843 190.74705,104.639912 170.23157,104.639912" id="Fill-8" fill="#FFFFFF"></path>
                    </g>
                </g>
            </g>
        </g>
    </g>
</svg>