<?xml version="1.0" encoding="UTF-8"?>
<svg width="702px" height="123px" viewBox="0 0 702 123" version="1.1" xmlns="http://www.w3.org/2000/svg" xmlns:xlink="http://www.w3.org/1999/xlink">
    <!-- Generator: Sketch 42 (36781) - http://www.bohemiancoding.com/sketch -->
    <title>Group</title>
    <desc>Created with Sketch.</desc>
    <defs>
        <linearGradient x1="0%" y1="100%" x2="100%" y2="-42.2119696%" id="linearGradient-1">
            <stop stop-color="#3399FF" offset="0%"></stop>
            <stop stop-color="#00CCFF" offset="100%"></stop>
        </linearGradient>
    </defs>
    <g id="Page-1" stroke="none" stroke-width="1" fill="none" fill-rule="evenodd">
        <g id="Group">
            <g id="So-sure-brand-identity-">
                <g id="Page-1">
                    <polygon id="Fill-1" fill="#3399FF" points="242.778596 49.43732 234.900095 72.0351006 264.996152 72.0351006 273.566746 49.43732"></polygon>
                    <g id="Group-10" transform="translate(0.000000, 0.665602)">
                        <path d="M701.455578,67.1994668 L701.455578,63.0930132 C701.455578,25.2718686 679.211934,1.49927984 640.770866,1.49927984 C604.705318,1.49927984 579.438564,23.7607428 579.438564,60.7157543 C579.438564,98.9684296 606.865997,119.715695 643.579136,119.715695 C668.844355,119.715695 693.681428,107.829401 699.944023,81.6795534 L662.150545,81.6795534 C657.832255,89.0263276 651.786035,91.836653 643.362761,91.836653 C627.165337,91.836653 618.743597,83.1922149 618.743597,67.1994668 L701.455578,67.1994668 Z M664.958815,44.5080087 L619.391187,44.5080087 C621.766707,33.0532451 631.268786,27.0025991 642.715171,27.0025991 C653.296055,27.0025991 663.01451,33.9178425 664.958815,44.5080087 L664.958815,44.5080087 Z M572.83069,38.1102952 L585.988124,4.22514193 C584.321577,3.66154115 575.896768,3.66154115 575.896768,3.66154115 C560.563309,3.66154115 547.60537,9.71218713 540.047595,23.3276763 L539.61638,23.3276763 L539.61638,5.17420264 L500.311347,5.17420264 L500.311347,116.042308 L539.61638,116.042308 L539.61638,71.3059205 C539.61638,52.2878494 545.013475,37.8077629 566.825904,37.8077629 C568.915993,37.8077629 570.688425,37.9137259 572.83069,38.1102952 L572.83069,38.1102952 Z M471.921736,108.486679 C483.193179,97.5110532 484.110854,83.7327802 484.110854,68.1669559 L484.110854,5.13427452 L450.795261,5.13427452 L450.795261,64.2524644 C450.795261,79.1610104 449.530773,91.5018711 433.991681,91.5018711 C418.455658,91.5018711 417.191169,79.1610104 417.191169,64.2524644 L417.191169,5.13427452 L383.875577,5.13427452 L383.875577,68.1669559 C383.875577,83.7312445 384.791718,97.5095175 396.052418,108.477465 C407.43742,119.688053 424.709045,121.361963 433.991681,121.361963 C443.275851,121.361963 460.550546,119.688053 471.921736,108.486679 L471.921736,108.486679 Z M322.784203,34.8177609 C322.784203,29.1249323 330.661169,27.1546331 335.254148,27.1546331 C342.035429,27.1546331 350.567658,29.344537 356.693675,32.627857 L367.012148,5.94205112 C356.119745,1.99684565 344.659549,0.00658240184 333.065846,0.00658240184 C308.56331,0.00658240184 283.62342,12.2675869 283.62342,39.8533112 C283.62342,59.9955124 296.0949,66.1244789 308.56331,69.4093347 C321.033255,72.6926548 333.5032,73.1303284 333.5032,81.8884081 C333.5032,88.0173747 326.066656,90.4268832 321.033255,90.4268832 C311.188965,90.4268832 297.62487,84.7340546 289.529994,79.041226 C289.529994,79.041226 277.391517,108.210254 277.475919,108.25786 C290.486033,115.684491 305.334567,119.763302 320.377992,119.763302 C346.412033,119.763302 373.32078,107.503833 373.32078,77.9462741 C373.32078,57.1483303 359.319331,48.3902505 340.723368,44.6692568 C335.254148,43.5743049 322.784203,42.4808887 322.784203,34.8177609 L322.784203,34.8177609 Z" id="Fill-2" fill="url(#linearGradient-1)"></path>
                        <path d="M226.116964,61.1750812 C226.116964,27.9103496 199.169852,0.943511112 165.929454,0.943511112 C132.689055,0.943511112 105.741944,27.9103496 105.741944,61.1750812 C105.741944,94.4398129 132.689055,121.406651 165.929454,121.406651 C199.169852,121.406651 226.116964,94.4398129 226.116964,61.1750812 Z" id="Fill-4" fill="#3399FF"></path>
                        <path d="M0.240470828,108.2574 C13.2505856,115.68403 28.0991195,119.764377 43.1425442,119.764377 C69.1765848,119.764377 96.0853324,107.503373 96.0853324,77.9473491 C96.0853324,57.1478696 82.0838831,48.3913255 63.4879206,44.6687961 C58.0187004,43.5738442 45.5487555,42.480428 45.5487555,34.8173002 C45.5487555,29.1260073 53.4257217,27.1541724 58.0187004,27.1541724 C64.799981,27.1541724 73.3322101,29.3440763 79.4597623,32.6273963 L89.7767005,5.94312611 C78.8858318,1.99638494 67.4241018,0.0076573897 55.831933,0.0076573897 C31.3278622,0.0076573897 6.38950713,12.2671262 6.38950713,39.8528505 C6.38950713,59.9950517 18.859452,66.1240182 31.3278622,69.408874 C43.7978071,72.6937298 56.2677519,73.1314034 56.2677519,81.8879474 C56.2677519,88.016914 48.8312084,90.4264225 43.7978071,90.4264225 C33.9535176,90.4264225 20.3909564,84.7351296 12.2960808,79.0407653 C12.2960808,79.0407653 0.157603855,108.209793 0.240470828,108.2574" id="Fill-6" fill="#3399FF"></path>
                        <path d="M165.929607,101.783823 C145.932579,101.783823 129.661495,83.9298101 129.661495,61.983165 L141.155451,61.983165 C141.155451,77.3232418 152.500554,90.2829884 165.929607,90.2829884 C179.35866,90.2829884 190.703763,77.3232418 190.703763,61.983165 L202.196184,61.983165 C202.196184,83.9298101 185.926635,101.783823 165.929607,101.783823" id="Fill-8" fill="#FFFFFF"></path>
                    </g>
                </g>
            </g>
        </g>
    </g>
</svg>