<?xml version="1.0" encoding="UTF-8" standalone="no"?>
<svg width="698px" height="122px" viewBox="0 0 698 122" version="1.1" xmlns="http://www.w3.org/2000/svg" xmlns:xlink="http://www.w3.org/1999/xlink">
    <!-- Generator: Sketch 3.6.1 (26313) - http://www.bohemiancoding.com/sketch -->
    <title>So sure brand identity </title>
    <desc>Created with Sketch.</desc>
    <defs></defs>
    <g id="Pages" stroke="none" stroke-width="1" fill="none" fill-rule="evenodd">
        <g id="Logo-w/Social" transform="translate(-26.000000, -29.000000)">
            <g id="So-sure-brand-identity-" transform="translate(26.000000, 29.000000)">
                <g id="Page-1">
                    <path d="M241.462417,49.154821 L233.626628,71.6234715 L263.559524,71.6234715 L272.083654,49.154821 L241.462417,49.154821 Z" id="Fill-1" fill="#3399FF"></path>
                    <g id="Group-10" transform="translate(0.000000, 0.661799)">
                        <path d="M697.652765,66.8154699 L697.652765,62.7324817 C697.652765,25.127458 675.529711,1.49071253 637.297045,1.49071253 C601.427019,1.49071253 576.297244,23.6249672 576.297244,60.3688071 C576.297244,98.4028958 603.575985,119.031606 640.09009,119.031606 C665.218338,119.031606 689.920762,107.213233 696.149405,81.2128131 L658.560818,81.2128131 C654.265938,88.5176057 648.252497,91.3118721 639.874888,91.3118721 C623.765275,91.3118721 615.389192,82.7168308 615.389192,66.8154699 L697.652765,66.8154699 Z M661.353863,44.2536772 L616.033272,44.2536772 C618.395913,32.8643694 627.846479,26.8482985 639.230809,26.8482985 C649.754331,26.8482985 659.420099,33.7240262 661.353863,44.2536772 L661.353863,44.2536772 Z M569.725194,37.892522 L582.811297,4.20099826 C581.153785,3.64061805 572.77465,3.64061805 572.77465,3.64061805 C557.524318,3.64061805 544.636628,9.65668892 537.119826,23.1943753 L536.690949,23.1943753 L536.690949,5.14463577 L497.599001,5.14463577 L497.599001,115.379209 L536.690949,115.379209 L536.690949,70.8984581 C536.690949,51.9890617 542.058785,37.5917185 563.752961,37.5917185 C565.83172,37.5917185 567.594543,37.6970761 569.725194,37.892522 L569.725194,37.892522 Z M469.363299,107.866755 C480.573636,96.9538472 481.486336,83.2543072 481.486336,67.7774304 L481.486336,5.10493581 L448.351358,5.10493581 L448.351358,63.8853074 C448.351358,78.7086617 447.093724,90.9790032 431.638875,90.9790032 C416.187078,90.9790032 414.929444,78.7086617 414.929444,63.8853074 L414.929444,5.10493581 L381.794466,5.10493581 L381.794466,67.7774304 C381.794466,83.2527802 382.70564,96.9523203 393.905293,107.857594 C405.228573,119.004121 422.406563,120.668466 431.638875,120.668466 C440.872712,120.668466 458.053756,119.004121 469.363299,107.866755 L469.363299,107.866755 Z M321.034288,34.6188023 C321.034288,28.9585041 328.868551,26.9994638 333.436629,26.9994638 C340.181147,26.9994638 348.66712,29.1768539 354.759926,32.4414121 L365.022459,5.90809654 C354.189107,1.9854351 342.791041,0.00654478811 331.260191,0.00654478811 C306.890491,0.00654478811 282.085808,12.1974864 282.085808,39.625578 C282.085808,59.6526809 294.489676,65.7466248 306.890491,69.01271 C319.292832,72.2772682 331.695173,72.7124408 331.695173,81.4204744 C331.695173,87.5144183 324.298946,89.9101581 319.292832,89.9101581 C309.501912,89.9101581 296.011351,84.24986 287.96036,78.5895619 C287.96036,78.5895619 275.88769,107.59191 275.971634,107.639244 C288.911217,115.023437 303.679252,119.07894 318.641122,119.07894 C344.534023,119.07894 371.29689,106.889526 371.29689,77.5008668 C371.29689,56.8217684 357.371347,48.1137348 338.876199,44.4140039 C333.436629,43.3253089 321.034288,42.2381407 321.034288,34.6188023 L321.034288,34.6188023 Z" id="Fill-2" fill="#3399FF"></path>
                        <path d="M224.891112,60.8255093 C224.891112,27.7508619 198.090089,0.93811962 165.029898,0.93811962 C131.969706,0.93811962 105.168683,27.7508619 105.168683,60.8255093 C105.168683,93.9001568 131.969706,120.712899 165.029898,120.712899 C198.090089,120.712899 224.891112,93.9001568 224.891112,60.8255093 Z" id="Fill-4" fill="#3399FF"></path>
                        <path d="M0.23916716,107.638786 C13.17875,115.022979 27.9467852,119.080009 42.9086548,119.080009 C68.8015567,119.080009 95.5644235,106.889068 95.5644235,77.5019356 C95.5644235,56.8213103 81.6388805,48.1148037 63.1437325,44.4135459 C57.7041627,43.3248508 45.3018213,42.2376827 45.3018213,34.6183442 C45.3018213,28.959573 53.136084,26.9990057 57.7041627,26.9990057 C64.4486798,26.9990057 72.934653,29.1763958 79.0289858,32.4409541 L89.2899926,5.90916539 C78.4581668,1.98497703 67.0585744,0.00761363319 55.5292505,0.00761363319 C31.158024,0.00761363319 6.35486759,12.1970283 6.35486759,39.6251199 C6.35486759,59.6522228 18.7572089,65.7461667 31.158024,69.0122519 C43.5603653,72.278337 55.9627067,72.7135097 55.9627067,81.4200163 C55.9627067,87.5139602 48.566479,89.9097001 43.5603653,89.9097001 C33.7694449,89.9097001 20.2804106,84.2509288 12.2294199,78.5891038 C12.2294199,78.5891038 0.156749435,107.591452 0.23916716,107.638786" id="Fill-6" fill="#3399FF"></path>
                        <path d="M165.03005,101.202201 C145.141432,101.202201 128.958559,83.4502112 128.958559,61.6289755 L140.390203,61.6289755 C140.390203,76.8813947 151.6738,89.7670856 165.03005,89.7670856 C178.3863,89.7670856 189.669897,76.8813947 189.669897,61.6289755 L201.100015,61.6289755 C201.100015,83.4502112 184.918668,101.202201 165.03005,101.202201" id="Fill-8" fill="#FFFFFF"></path>
                    </g>
                </g>
            </g>
        </g>
    </g>
</svg>