<?xml version="1.0" encoding="UTF-8" standalone="no"?>
<svg width="750px" height="134px" viewBox="0 0 750 134" version="1.1" xmlns="http://www.w3.org/2000/svg" xmlns:xlink="http://www.w3.org/1999/xlink" xmlns:sketch="http://www.bohemiancoding.com/sketch/ns">
    <!-- Generator: Sketch 3.5.1 (25234) - http://www.bohemiancoding.com/sketch -->
    <title>Logo</title>
    <desc>Created with Sketch.</desc>
    <defs>
        <linearGradient x1="0%" y1="0%" x2="100%" y2="100%" id="linearGradient-1">
            <stop stop-color="#00CFF2" offset="0%"></stop>
            <stop stop-color="#00A1E0" offset="100%"></stop>
        </linearGradient>
        <linearGradient x1="0%" y1="0%" x2="100%" y2="100%" id="linearGradient-2">
            <stop stop-color="#00A2DF" offset="0%"></stop>
            <stop stop-color="#3C80AF" offset="100%"></stop>
        </linearGradient>
    </defs>
    <g id="Pages" stroke="none" stroke-width="1" fill="none" fill-rule="evenodd" sketch:type="MSPage">
        <g id="Artboard-7" sketch:type="MSArtboardGroup" transform="translate(0.000000, -23.000000)">
            <g id="Logo" sketch:type="MSLayerGroup" transform="translate(0.000000, 23.000000)">
                <path d="M86.7625619,13.5111013 C76.6419957,4.63996203 59.9431463,0.584341772 46.7865797,0.584341772 C23.5094469,0.584341772 7.31687976,17.5667215 7.31687976,40.8844177 C7.31687976,60.9063924 19.7148696,68.2577342 32.1111662,73.5787215 C44.509156,78.9014051 56.9071458,81.4372278 56.9071458,92.3353291 C56.9071458,100.444873 50.581157,105.767557 42.7380146,105.767557 C32.3651539,105.767557 23.2571524,98.9250759 16.4248813,91.321 L0.23231415,112.357304 C11.1114571,125.536797 27.3040242,133.140873 44.0028737,133.140873 C70.0637124,133.140873 92.3282806,116.667354 92.3282806,89.0396076 C92.3282806,67.4961392 79.6779963,58.8794304 66.7737241,53.3040127 C54.1234398,47.7268987 41.2208609,45.1927722 41.2208609,36.0688987 C41.2208609,29.9863165 47.0388742,25.4235316 52.8585807,25.4235316 C59.9431463,25.4235316 66.5214296,29.2247215 71.5825593,34.0402405 L86.7625619,13.5111013 Z M165.700268,0.584341772 C126.989145,0.584341772 100.422024,28.2120886 100.422024,66.9889747 C100.422024,105.514823 126.735158,133.140873 165.700268,133.140873 C204.663686,133.140873 230.976819,105.514823 230.976819,66.9889747 C230.976819,28.2120886 204.409698,0.584341772 165.700268,0.584341772 L165.700268,0.584341772 Z M246.757926,77.6937089 L300.025935,77.6937089 L300.025935,48.5461646 L246.757926,48.5461646 L246.757926,77.6937089 Z" id="so" fill="url(#linearGradient-1)" sketch:type="MSShapeGroup"></path>
                <path d="M138.705771,69.7894051 C138.705771,85.7896835 150.754951,98.7605443 165.618315,98.7605443 C180.48168,98.7605443 192.530859,85.7896835 192.530859,69.7894051" id="smile" stroke="#FFFFFF" stroke-width="11" sketch:type="MSShapeGroup"></path>
                <path d="M399.671278,12.9267595 C389.550712,4.05562025 372.851863,0 359.695296,0 C336.418163,0 320.225596,16.9823797 320.225596,40.3000759 C320.225596,60.3220506 332.623586,67.6733924 345.019883,72.9943797 C357.417872,78.3170633 369.815862,80.8528861 369.815862,91.7509873 C369.815862,99.8605316 363.489873,105.183215 355.646731,105.183215 C345.27387,105.183215 336.165869,98.3407342 329.333598,90.7366582 L313.141031,111.772962 C324.020174,124.952456 340.212741,132.556532 356.91159,132.556532 C382.972429,132.556532 405.236997,116.083013 405.236997,88.4552658 C405.236997,66.9117975 392.586713,58.2950886 379.682441,52.7196709 C367.032156,47.142557 354.129577,44.6084304 354.129577,35.484557 C354.129577,29.4019747 359.947591,24.8391899 365.767297,24.8391899 C372.851863,24.8391899 379.430146,28.6403797 384.491276,33.4558987 L399.671278,12.9267595 Z M418.644165,4.05562025 L418.644165,77.3044304 C418.644165,113.54719 437.36645,132.556532 474.306432,132.556532 C511.246414,132.556532 529.970392,113.54719 529.970392,77.3044304 L529.970392,4.05562025 L494.547564,4.05562025 L494.547564,71.4745823 C494.547564,85.6684051 492.270141,102.649089 474.306432,102.649089 C456.342723,102.649089 454.0653,85.6684051 454.0653,71.4745823 L454.0653,4.05562025 L418.644165,4.05562025 Z M584.267898,4.05562025 L548.84507,4.05562025 L548.84507,128.500911 L584.267898,128.500911 L584.267898,72.4889114 C584.267898,53.2251392 586.797617,31.4289367 611.339609,31.4289367 C616.653033,31.4289367 621.712469,32.9504304 626.015022,35.9917215 L630.315882,3.04129114 C625.761034,1.26706329 620.701598,0 615.640468,0 C602.483902,0 591.857053,6.08427848 584.772487,16.9823797 L584.267898,16.9823797 L584.267898,4.05562025 Z M749.481865,71.9817468 L749.481865,67.6733924 C749.481865,30.1618734 731.264169,0 690.52961,0 C650.301333,0 630.312495,29.6547089 630.312495,67.418962 C630.312495,105.183215 653.843616,132.556532 692.300751,132.556532 C718.36159,132.556532 740.119876,118.617139 748.721595,93.7779494 L716.084166,88.4552658 C711.277024,98.3407342 703.938471,105.437646 692.300751,105.437646 C673.83076,105.437646 667.758759,87.6953671 667.758759,71.9817468 L749.481865,71.9817468 Z M668.76963,49.9311139 C670.540772,37.0043544 678.385608,24.8391899 692.553046,24.8391899 C706.215894,24.8391899 714.313025,37.2587848 716.084166,49.9311139 L668.76963,49.9311139 Z" id="sure" fill="url(#linearGradient-2)" sketch:type="MSShapeGroup"></path>
            </g>
        </g>
    </g>
</svg>